<svg version="1.1" id="Layer_1" xmlns="http://www.w3.org/2000/svg" xmlns:xlink="http://www.w3.org/1999/xlink" x="0px" y="0px"
	 width="100%" viewBox="0 0 1000 880" enable-background="new 0 0 1000 880" xml:space="preserve">
<path fill="#000000" opacity="1.000000" stroke="none" 
	d="
M1.000000,305.000000 
	C1.000000,204.666672 1.022528,104.833313 0.904450,5.000113 
	C0.900400,1.576015 1.576590,0.904968 5.000029,0.906012 
	C335.666656,1.006849 666.333313,1.006849 997.000000,0.906012 
	C1000.423401,0.904968 1001.095337,1.576560 1001.094116,5.000033 
	C1000.992249,295.666656 1000.992249,586.333313 1001.094116,876.999939 
	C1001.095337,880.423462 1000.423401,881.095032 997.000000,881.093994 
	C666.333313,880.993164 335.666656,880.993164 5.000029,881.093994 
	C1.576591,881.095032 0.903589,880.423584 0.905501,876.999939 
	C1.011863,686.500000 1.000000,496.000000 1.000000,305.000000 
z"/>
<path fill="#F1F1F1" opacity="1.000000" stroke="none" 
	d="
M109.579712,73.294403 
	C143.766159,72.823082 177.505051,74.032928 212.521469,76.144119 
	C206.061829,77.406395 195.807007,76.689140 190.141922,76.186836 
	C183.361816,75.585670 176.479141,76.263245 169.657852,75.979263 
	C156.205750,75.419189 142.844421,77.362839 129.397568,77.092186 
	C117.140648,76.845497 104.922981,75.316696 92.641426,76.020866 
	C90.806786,76.126053 88.359566,75.731102 88.262787,74.049423 
	C88.148064,72.056046 90.349350,71.447639 92.469505,70.863808 
	C106.140259,67.099312 120.140671,70.530838 133.798798,68.831757 
	C166.410812,64.774788 199.099777,68.187447 231.723572,66.949852 
	C234.511856,66.844070 237.134583,67.152489 240.299988,69.067825 
	C196.633987,67.768745 153.765305,68.674683 110.497612,72.022163 
	C106.039856,73.577675 101.906326,73.213997 96.897919,73.434349 
	C101.564514,73.763107 105.396751,72.455009 109.579712,73.294403 
z"/>
<path fill="#F1F1F1" opacity="1.000000" stroke="none" 
	d="
M883.419861,628.423401 
	C894.700928,653.202209 901.852905,679.410889 906.029968,706.453979 
	C906.912476,712.167603 907.572083,717.915588 908.884705,723.596375 
	C909.992615,700.144531 907.459351,677.003601 902.853699,653.932190 
	C906.353333,657.449768 907.528809,662.049622 907.945862,666.693237 
	C908.757019,675.724976 909.956116,684.659241 911.696411,693.570496 
	C912.573730,698.062744 911.958374,702.845581 912.027161,707.496948 
	C912.077576,710.905334 912.517212,714.106323 913.559570,717.509888 
	C915.410278,723.553101 913.532410,729.680603 911.226440,735.561218 
	C910.471436,737.486694 909.102966,737.318054 908.158691,736.912903 
	C905.887207,735.938171 903.932007,734.477966 903.956543,731.500183 
	C904.014282,724.508606 905.199341,717.228455 903.641846,710.602478 
	C901.975525,703.513550 902.282837,696.284729 900.528015,689.170105 
	C899.183838,683.720398 895.240295,678.503540 896.938293,672.310364 
	C897.411011,670.586365 895.791199,669.341980 895.364502,667.812012 
	C893.268921,660.297852 890.711670,652.927612 888.823303,645.337524 
	C887.652283,640.630798 885.133850,636.265381 883.319885,631.707092 
	C882.972229,630.833740 883.089172,629.775513 883.419861,628.423401 
z"/>
<path fill="#F1F1F1" opacity="1.000000" stroke="none" 
	d="
M101.133743,176.928970 
	C91.620308,179.703537 82.503769,182.397461 73.387230,185.091370 
	C73.528503,185.647171 73.669785,186.202972 73.811058,186.758774 
	C102.649696,180.914215 131.504684,175.166153 160.879379,171.981522 
	C156.522263,172.996948 152.205032,174.606354 147.799576,174.902206 
	C139.051804,175.489670 130.776855,178.099625 122.277527,179.685165 
	C112.961693,181.423050 103.637756,183.168900 94.353523,185.073090 
	C87.483139,186.482254 80.778816,188.783142 73.874290,189.920395 
	C67.074814,191.040359 60.762001,194.456451 53.671818,194.036682 
	C52.532074,193.969193 51.124260,194.317841 50.606304,193.015259 
	C50.057354,191.634766 51.878033,190.704224 52.358288,190.415833 
	C56.289474,188.055069 60.249374,185.045914 64.583908,184.201462 
	C72.975815,182.566574 80.868385,179.315338 89.123001,177.547913 
	C95.541229,176.173691 101.745193,174.051941 108.185349,172.735321 
	C112.966690,171.757812 117.519356,169.777527 122.722176,170.871857 
	C115.658333,172.864014 108.594490,174.856155 101.133743,176.928970 
z"/>
<path fill="#EFEFEF" opacity="1.000000" stroke="none" 
	d="
M927.272156,582.521606 
	C936.929260,597.073425 943.258423,612.849426 947.394653,630.222473 
	C952.018311,604.992798 930.521729,560.129089 900.657959,531.856323 
	C900.410767,531.354065 900.367798,531.108704 900.696960,530.897949 
	C907.731140,534.828308 912.887756,540.559570 917.831482,546.190918 
	C923.033813,552.116760 927.248230,559.011475 931.253113,565.857910 
	C935.079712,572.399658 938.471130,579.183350 941.418945,586.269043 
	C943.364502,590.945801 944.176697,596.027222 946.685608,600.504333 
	C947.989075,602.830139 948.545410,606.384277 948.526245,608.313782 
	C948.464722,614.498474 950.781006,620.134338 951.188660,626.131897 
	C951.423462,629.586731 949.689697,632.072571 948.473938,634.675232 
	C947.411072,636.950684 945.093445,634.985840 944.391479,633.720032 
	C942.933350,631.090698 940.946838,628.013550 941.214905,625.323486 
	C941.757874,619.873169 939.823669,614.969177 938.712219,610.034668 
	C937.457153,604.462646 934.269775,599.317383 931.852417,594.018616 
	C930.289856,590.593384 928.601074,587.225769 926.961548,583.439087 
	C926.963989,582.848083 926.973633,582.650208 927.272156,582.521606 
z"/>
<path fill="#F1F1F1" opacity="1.000000" stroke="none" 
	d="
M193.123169,276.953400 
	C190.376068,280.364838 186.119629,281.441498 182.343002,282.834076 
	C176.231873,285.087402 171.374084,289.428986 165.263718,291.674072 
	C159.466599,293.804047 153.873215,296.791656 148.671234,300.147675 
	C144.051407,303.128143 138.797592,304.809509 134.357437,307.781525 
	C132.144333,309.262848 130.729095,309.463287 129.598358,307.908569 
	C128.651886,306.607178 128.436295,304.808197 130.095367,302.793762 
	C132.470840,299.909454 135.597351,298.169189 138.478317,296.337433 
	C147.649033,290.506592 157.161484,285.203400 166.634399,279.860352 
	C177.355072,273.813507 188.169632,267.932800 198.972214,262.032684 
	C199.489426,261.750214 200.285553,261.978424 201.248596,261.748108 
	C202.120819,263.971863 199.786057,263.688385 198.710358,264.267517 
	C181.878616,273.329041 165.338226,282.878143 149.317871,293.316010 
	C148.342697,293.951355 147.255966,294.470581 146.427490,295.260345 
	C145.611542,296.038116 143.407242,296.335449 144.608826,298.059174 
	C145.447693,299.262543 146.719070,297.967621 147.669785,297.523468 
	C161.202118,291.201874 174.707230,284.822021 188.234924,278.490387 
	C189.729492,277.790863 191.322464,277.301575 193.123169,276.953400 
z"/>
<path fill="#E9E9E9" opacity="1.000000" stroke="none" 
	d="
M327.256104,137.889893 
	C324.309174,137.905655 321.824493,137.905655 319.339844,137.903641 
	C324.231689,132.707367 428.733185,132.509521 438.711731,138.273468 
	C401.023956,136.474869 364.369141,136.046143 327.256104,137.889893 
z"/>
<path fill="#F1F1F1" opacity="1.000000" stroke="none" 
	d="
M536.388428,194.068176 
	C534.070374,188.462128 532.099854,182.817551 530.189575,177.152695 
	C529.930481,176.384338 529.478882,174.439545 530.805298,175.173920 
	C534.873352,177.426147 532.922607,173.533447 532.859863,173.053909 
	C532.386108,169.429001 531.657349,165.661285 527.111877,165.094284 
	C524.857483,164.813095 525.542419,163.103363 525.088562,162.004349 
	C524.332825,160.174347 523.855835,158.229202 523.185669,156.090759 
	C529.380615,157.078827 525.949219,151.841171 527.584534,149.338104 
	C533.838684,171.355804 541.787842,192.549759 549.827698,213.728241 
	C546.113953,210.100037 545.189331,205.086716 542.964294,200.739441 
	C541.533997,197.944992 541.300720,193.965454 536.388428,194.068176 
z"/>
<path fill="#EFEFEF" opacity="1.000000" stroke="none" 
	d="
M501.622070,304.939941 
	C500.555084,312.874146 497.316681,320.342804 495.685516,328.298370 
	C490.499329,353.592834 490.112946,378.528320 499.854950,402.948608 
	C500.094513,403.549164 500.364349,404.200806 499.824280,404.756714 
	C496.216156,404.099243 497.098724,400.636261 496.205444,398.458344 
	C492.890411,390.375732 490.996857,381.841614 491.136200,373.114838 
	C491.192078,369.617737 488.297729,367.350952 488.882751,363.770325 
	C490.446228,354.200867 491.194061,344.511597 492.547363,334.902039 
	C493.503632,328.111694 495.039948,321.656830 497.029694,315.228851 
	C498.117706,311.713867 499.824188,308.390320 501.622070,304.939941 
z"/>
<path fill="#E9E9E9" opacity="1.000000" stroke="none" 
	d="
M471.364349,101.658417 
	C476.810364,99.988091 481.716400,103.397736 486.967957,104.654274 
	C497.570923,107.191200 507.474274,112.089951 518.007446,115.165474 
	C526.346924,117.600471 534.212769,121.658875 542.286011,125.003487 
	C544.214417,125.802383 545.184204,126.913826 545.097412,129.352585 
	C544.847351,136.382492 545.009155,143.427032 544.585266,150.473999 
	C543.310242,144.517029 542.456665,138.499374 543.630310,132.492218 
	C544.236755,129.388550 543.190002,128.126419 540.519958,126.896057 
	C518.293823,116.654053 495.137421,109.027847 471.364349,101.658417 
z"/>
<path fill="#EFEFEF" opacity="1.000000" stroke="none" 
	d="
M826.733643,488.354614 
	C832.403442,487.740906 836.558716,491.251007 841.285034,492.873596 
	C854.141479,497.287292 865.717468,504.550934 877.331787,511.367981 
	C885.939270,516.420105 894.240784,522.517517 901.047852,530.559814 
	C901.069031,530.932678 900.762939,531.267517 900.608276,531.433472 
	C879.026672,512.582336 854.271484,499.303802 827.305664,489.143250 
	C826.832642,488.815369 826.646606,488.686096 826.733643,488.354614 
z"/>
<path fill="#EAEAEA" opacity="1.000000" stroke="none" 
	d="
M606.346680,485.658875 
	C632.090820,486.719513 658.217773,488.299927 684.344788,489.880310 
	C678.947144,490.613678 673.692322,491.303772 668.199097,490.329468 
	C662.719238,489.357574 656.940796,490.015228 651.293823,490.048859 
	C637.474121,490.131104 623.827148,486.664520 609.950012,488.054382 
	C608.345459,488.215088 607.571594,487.198181 606.346680,485.658875 
z"/>
<path fill="#EDEDED" opacity="1.000000" stroke="none" 
	d="
M894.456604,623.145508 
	C887.629150,603.769470 879.604980,585.205933 868.850159,567.899841 
	C868.358154,567.108276 867.321960,565.953491 868.356445,565.371704 
	C870.217529,564.324951 869.606995,566.369507 870.143860,567.139343 
	C878.701233,579.411255 885.576965,592.657837 890.551819,606.653564 
	C892.301147,611.574890 895.871521,616.334961 895.063354,622.547363 
	C894.959229,623.081604 894.817383,623.193298 894.456604,623.145508 
z"/>
<path fill="#EDEDED" opacity="1.000000" stroke="none" 
	d="
M242.060104,79.071793 
	C262.619781,79.712799 282.964630,82.498253 304.362000,85.137405 
	C298.913483,86.287735 281.995850,85.109535 278.136475,83.643410 
	C277.388306,83.359184 276.544342,82.975662 275.803802,83.075859 
	C265.700562,84.442947 256.006989,79.935944 245.933456,81.033142 
	C244.368179,81.203636 242.959030,80.968704 242.060104,79.071793 
z"/>
<path fill="#EDEDED" opacity="1.000000" stroke="none" 
	d="
M605.598999,485.021606 
	C605.963806,485.139130 605.982727,485.483978 605.990417,485.656494 
	C596.542297,487.688538 588.147156,483.222687 579.668884,480.641602 
	C569.923645,477.674835 560.683960,472.913300 551.948486,467.451721 
	C551.262817,467.022980 550.750122,466.317535 550.043213,465.405914 
	C549.904175,464.822540 549.879028,464.573944 550.222839,464.390869 
	C567.427185,474.956909 585.568359,481.967651 605.598999,485.021606 
z"/>
<path fill="#E6E6E6" opacity="1.000000" stroke="none" 
	d="
M784.285217,312.259735 
	C784.715881,315.814728 784.826904,319.118073 784.923218,322.421844 
	C784.926575,322.537750 784.783630,322.657928 784.707153,322.776764 
	C782.205933,321.967651 782.819885,319.811676 783.016663,318.168182 
	C783.441162,314.622192 781.799316,312.705597 778.762268,311.368622 
	C766.251465,305.860962 754.096130,299.554230 741.205200,294.879425 
	C739.829651,294.380554 738.099182,293.089233 736.509277,292.192963 
	C736.839844,291.675385 737.170471,291.157806 737.501099,290.640259 
	C752.988403,297.762909 768.475769,304.885529 784.285217,312.259735 
z"/>
<path fill="#EFEFEF" opacity="1.000000" stroke="none" 
	d="
M843.244446,366.410187 
	C848.889282,370.575623 853.360168,375.479065 857.739441,380.887390 
	C864.763123,373.807465 873.181091,368.448334 881.430176,362.352295 
	C884.698486,367.289703 878.557129,367.538605 876.881592,368.667267 
	C873.308533,371.074127 869.476868,373.142120 866.370300,376.206055 
	C858.937561,383.536957 858.714966,383.565887 851.270325,376.084473 
	C848.511719,373.312195 845.738281,370.554688 842.953857,367.427246 
	C842.920959,366.824860 842.905823,366.585663 843.244446,366.410187 
z"/>
<path fill="#EAEAEA" opacity="1.000000" stroke="none" 
	d="
M733.622925,497.367981 
	C728.909607,498.157379 723.939575,497.326508 719.087524,496.006226 
	C716.513733,495.305908 713.986694,495.072784 711.360535,495.013275 
	C704.387512,494.855347 697.694519,491.856720 690.574890,492.897491 
	C690.186279,492.954254 689.669006,492.131012 688.120300,490.730438 
	C704.195007,491.438385 718.750977,493.973999 733.622925,497.367981 
z"/>
<path fill="#E9E9E9" opacity="1.000000" stroke="none" 
	d="
M349.266418,92.656807 
	C342.860504,92.684761 336.764191,92.658295 330.817871,90.502785 
	C328.450989,89.644798 325.552124,90.390648 322.958649,89.993553 
	C317.368622,89.137657 311.819550,88.014420 306.351868,86.384109 
	C320.495544,86.899200 334.339447,89.614960 348.601532,92.007729 
	C349.155365,92.238129 349.347076,92.351028 349.266418,92.656807 
z"/>
<path fill="#EAEAEA" opacity="1.000000" stroke="none" 
	d="
M718.268616,283.639404 
	C713.739563,284.500305 709.936096,282.166626 706.635986,280.586609 
	C697.766968,276.340454 687.994202,274.929901 679.083252,270.385223 
	C678.976379,270.023071 679.010620,269.563568 679.235718,269.514587 
	C692.413086,272.993591 704.965820,277.668884 717.690186,282.875092 
	C718.164429,283.195953 718.351196,283.318207 718.268616,283.639404 
z"/>
<path fill="#EDEDED" opacity="1.000000" stroke="none" 
	d="
M881.657227,361.628235 
	C881.558411,362.008179 881.373169,362.000427 881.283264,361.978027 
	C869.178040,360.277283 858.435181,355.647675 848.751526,347.815125 
	C848.488220,347.351440 848.440491,347.133972 848.726440,346.928833 
	C853.231934,347.492859 856.392517,350.251190 859.616150,352.438385 
	C864.701477,355.888641 870.493835,357.200867 876.128174,358.707001 
	C878.309082,359.289978 879.967041,360.212860 881.657227,361.628235 
z"/>
<path fill="#E9E9E9" opacity="1.000000" stroke="none" 
	d="
M428.563751,184.418213 
	C416.968781,187.460831 404.946716,190.085938 392.911469,192.648880 
	C391.967896,192.849808 390.311951,193.922272 390.138794,192.097519 
	C389.970184,190.320587 391.805389,191.194885 392.783051,190.957352 
	C399.456329,189.336166 406.011139,186.969193 412.898285,186.593018 
	C418.120636,186.307770 422.801178,183.297058 428.563751,184.418213 
z"/>
<path fill="#E9E9E9" opacity="1.000000" stroke="none" 
	d="
M243.844879,160.422852 
	C257.133179,158.604370 270.287415,157.408386 283.546112,157.420837 
	C270.676697,158.541473 258.017670,161.685822 244.514801,161.106842 
	C243.929764,161.001236 243.806351,160.840591 243.844879,160.422852 
z"/>
<path fill="#F1F1F1" opacity="1.000000" stroke="none" 
	d="
M673.612000,463.268738 
	C656.236633,463.278473 638.415283,464.173950 619.359131,460.426575 
	C627.058960,459.227203 633.311279,460.646240 639.363464,461.249878 
	C649.157715,462.226746 658.893799,461.505280 668.635620,462.007996 
	C670.177368,462.087555 671.995789,461.164917 673.612000,463.268738 
z"/>
<path fill="#E2E2E2" opacity="1.000000" stroke="none" 
	d="
M491.249207,196.692505 
	C494.997314,196.343323 498.293518,196.040283 501.589722,195.737244 
	C501.646118,196.282104 501.702545,196.826981 501.758942,197.371857 
	C489.086884,197.834442 476.664246,200.589355 463.810516,199.456543 
	C472.806122,198.550568 481.801697,197.644608 491.249207,196.692505 
z"/>
<path fill="#E2E2E2" opacity="1.000000" stroke="none" 
	d="
M386.373108,153.695847 
	C399.085846,152.635803 412.129486,153.807693 425.195465,154.550537 
	C412.379547,154.481689 399.559570,156.176819 386.373108,153.695847 
z"/>
<path fill="#EFEFEF" opacity="1.000000" stroke="none" 
	d="
M693.860474,246.120361 
	C699.003235,245.296478 702.608459,249.310760 707.970703,249.886246 
	C707.970703,247.001053 707.972229,244.123306 707.970154,241.245560 
	C707.968872,239.443359 707.643188,237.474747 710.583130,237.127258 
	C711.332153,237.546387 711.461304,237.922684 711.171143,238.595871 
	C710.086975,243.533188 709.082886,248.245682 711.743713,253.700684 
	C705.462402,251.258942 700.069641,249.162598 694.345459,246.908859 
	C693.908081,246.610291 693.802002,246.469116 693.860474,246.120361 
z"/>
<path fill="#E6E6E6" opacity="1.000000" stroke="none" 
	d="
M452.011597,115.635788 
	C446.773102,116.595940 442.196594,114.013283 437.327087,112.971718 
	C430.868134,111.590187 424.526337,109.660851 418.301117,107.294289 
	C429.827301,108.795982 440.902496,112.195229 452.011597,115.635788 
z"/>
<path fill="#EDEDED" opacity="1.000000" stroke="none" 
	d="
M804.411621,297.358093 
	C807.721436,293.376160 817.323975,294.341431 820.242676,298.366669 
	C823.379211,302.692230 826.014404,307.251160 827.761719,312.766602 
	C825.234131,309.707977 822.535278,306.258911 820.836609,302.372681 
	C818.642883,297.353668 815.219910,295.978943 810.228760,297.000702 
	C808.453674,297.364075 806.631592,297.498505 804.411621,297.358093 
z"/>
<path fill="#EDEDED" opacity="1.000000" stroke="none" 
	d="
M443.227417,182.455872 
	C441.250854,180.742096 443.116943,180.086502 444.016449,180.078979 
	C454.516388,179.991318 464.639496,176.125320 475.220703,177.013260 
	C475.607574,177.045731 475.987427,177.161835 477.803741,177.527557 
	C465.478333,179.277771 454.584656,180.824692 443.227417,182.455872 
z"/>
<path fill="#EAEAEA" opacity="1.000000" stroke="none" 
	d="
M875.227905,609.766479 
	C871.916626,610.636963 872.775940,607.605103 872.098328,606.434204 
	C867.811096,599.025757 863.954468,591.368103 859.930115,583.412842 
	C860.057617,582.917358 860.210693,582.801758 860.585388,582.869873 
	C866.245789,591.010193 870.630249,599.562195 875.013794,608.496887 
	C875.194458,609.064392 875.334106,609.272888 875.227905,609.766479 
z"/>
<path fill="#EDEDED" opacity="1.000000" stroke="none" 
	d="
M218.699707,253.131592 
	C218.783890,249.257401 222.170181,250.944138 223.671600,250.100372 
	C231.504166,245.698715 239.729294,241.996307 248.611694,239.062561 
	C249.177841,239.284241 249.360519,239.422211 249.265533,239.762192 
	C239.227936,244.571228 229.467987,249.178253 219.351776,253.820679 
	C218.811539,253.699875 218.627548,253.543655 218.699707,253.131592 
z"/>
<path fill="#EDEDED" opacity="1.000000" stroke="none" 
	d="
M159.786407,161.262970 
	C160.120468,160.372452 160.272644,159.259445 160.438553,159.257401 
	C170.626083,159.131332 179.843277,153.557159 190.552795,154.056732 
	C191.177444,154.270004 191.362686,154.405167 191.260895,154.729889 
	C181.030472,157.133392 171.087082,159.347336 160.718903,161.601334 
	C160.066391,161.613907 159.838669,161.586411 159.786407,161.262970 
z"/>
<path fill="#EDEDED" opacity="1.000000" stroke="none" 
	d="
M824.209229,352.625671 
	C819.380676,352.623535 815.923584,349.361237 811.978333,347.653595 
	C805.916992,345.030090 799.780029,342.096527 794.117065,338.477173 
	C793.960144,338.376862 794.064331,337.867889 793.986755,336.460785 
	C803.638855,342.719788 814.282654,345.664490 823.751709,351.808899 
	C824.129395,352.180298 824.277222,352.305603 824.209229,352.625671 
z"/>
<path fill="#EDEDED" opacity="1.000000" stroke="none" 
	d="
M243.729599,145.157913 
	C244.410645,143.837769 245.044113,142.892700 246.412720,142.980606 
	C255.049805,143.535385 263.326569,139.566666 272.485657,140.892059 
	C273.071960,141.002197 273.199036,141.174622 273.144287,141.611938 
	C263.584534,143.166412 254.206604,144.455978 244.420410,145.710846 
	C243.831039,145.564667 243.649887,145.453156 243.729599,145.157913 
z"/>
<path fill="#E9E9E9" opacity="1.000000" stroke="none" 
	d="
M650.116028,263.057922 
	C659.816101,263.779633 669.327759,266.465118 679.157593,269.276184 
	C679.460876,269.465637 679.229980,269.754181 679.103149,269.888611 
	C672.097412,269.772705 665.656921,267.262543 659.035706,265.800720 
	C656.139465,265.161255 652.711975,266.184723 650.116028,263.057922 
z"/>
<path fill="#F1F1F1" opacity="1.000000" stroke="none" 
	d="
M567.711182,438.943207 
	C571.888733,439.517761 574.574341,442.327271 577.857239,443.971069 
	C583.488159,446.790619 589.170654,449.506927 594.746582,452.920593 
	C585.097839,450.387878 576.330933,445.628693 567.733887,439.829803 
	C567.449951,439.383850 567.410400,439.160370 567.711182,438.943207 
z"/>
<path fill="#EFEFEF" opacity="1.000000" stroke="none" 
	d="
M201.677338,152.129318 
	C202.476501,151.269501 202.973969,150.159851 203.535461,150.126450 
	C212.275208,149.606522 220.705170,146.340668 229.725174,147.831406 
	C220.757614,149.506226 211.790054,151.181030 202.416733,152.830551 
	C201.809128,152.663559 201.607285,152.521866 201.677338,152.129318 
z"/>
<path fill="#E2E2E2" opacity="1.000000" stroke="none" 
	d="
M825.991577,325.978760 
	C827.220276,328.051086 828.271729,329.799042 829.323242,331.546997 
	C824.306213,328.373749 817.524292,326.484558 819.626831,317.868195 
	C822.987000,319.836029 823.890076,323.176453 825.991577,325.978760 
z"/>
<path fill="#EAEAEA" opacity="1.000000" stroke="none" 
	d="
M543.214600,415.195404 
	C543.132690,415.631927 542.689880,415.945374 542.653137,415.903412 
	C535.840149,408.120392 531.435730,399.020172 528.194702,389.276794 
	C532.569458,398.161163 538.256165,406.272491 543.214600,415.195404 
z"/>
<path fill="#E9E9E9" opacity="1.000000" stroke="none" 
	d="
M736.022583,264.982208 
	C737.512085,264.926727 739.038208,265.539612 738.954529,263.284302 
	C738.857300,260.664795 739.465942,257.775787 738.560059,255.480606 
	C736.714355,250.803940 738.536072,249.394440 742.894531,249.602982 
	C743.149048,250.120117 743.289978,250.262238 743.233093,250.630142 
	C739.220764,256.250671 740.826965,262.030273 742.012146,268.141266 
	C739.598938,267.395935 737.421509,266.890472 736.022583,264.982208 
z"/>
<path fill="#EAEAEA" opacity="1.000000" stroke="none" 
	d="
M302.922424,70.965050 
	C310.107391,72.038765 317.042450,71.388412 323.660217,73.134171 
	C323.618256,73.552574 323.576294,73.970970 323.534332,74.389374 
	C313.197296,73.511894 302.860260,72.634415 292.523193,71.756935 
	C292.534576,71.493004 292.545929,71.229073 292.557281,70.965141 
	C295.852905,70.965141 299.148529,70.965141 302.922424,70.965050 
z"/>
<path fill="#DBDBDB" opacity="1.000000" stroke="none" 
	d="
M618.001343,261.070465 
	C612.539612,261.070465 607.576172,261.070465 602.612732,261.070465 
	C613.192810,258.889862 623.788208,258.741638 634.418274,261.070465 
	C629.112061,261.070465 623.805847,261.070465 618.001343,261.070465 
z"/>
<path fill="#DBDBDB" opacity="1.000000" stroke="none" 
	d="
M356.552063,153.455505 
	C356.042358,154.337723 355.289398,155.124741 353.958496,155.113602 
	C344.145264,155.031433 334.331055,155.069168 324.486450,154.055115 
	C335.019012,153.735229 345.551575,153.415329 356.552063,153.455505 
z"/>
<path fill="#EDEDED" opacity="1.000000" stroke="none" 
	d="
M827.899170,313.063904 
	C831.688293,313.974945 832.949036,317.662598 834.328979,320.210480 
	C836.463440,324.151459 841.867981,326.428925 840.890686,332.492920 
	C835.677979,326.607330 831.372253,320.553802 827.612610,313.682190 
	C827.488403,313.351379 827.764038,313.162262 827.899170,313.063904 
z"/>
<path fill="#EDEDED" opacity="1.000000" stroke="none" 
	d="
M150.558380,163.396164 
	C143.275055,165.776413 135.568863,167.786118 127.839462,169.702209 
	C126.933411,169.926834 125.363426,171.038361 125.106339,169.091202 
	C124.905006,167.566452 126.448425,168.178925 127.297394,167.955887 
	C132.801041,166.510056 138.351730,165.207855 143.769913,163.489395 
	C145.950150,162.797897 148.018311,163.194275 150.558380,163.396164 
z"/>
<path fill="#E6E6E6" opacity="1.000000" stroke="none" 
	d="
M249.362183,239.944992 
	C248.987885,239.964218 248.991409,239.555252 248.993286,239.350769 
	C257.435242,234.153336 266.486023,230.627304 276.211670,227.715546 
	C277.213898,229.831131 274.943878,229.359299 274.045868,229.749115 
	C265.988434,233.246597 257.850647,236.558975 249.362183,239.944992 
z"/>
<path fill="#E9E9E9" opacity="1.000000" stroke="none" 
	d="
M518.210938,435.840607 
	C513.445007,432.886902 510.305084,428.422577 508.111664,423.538361 
	C506.774689,420.561249 502.798004,418.508026 504.481140,413.720978 
	C508.651550,421.156158 512.716553,428.093811 517.891541,434.685272 
	C518.150085,435.199921 518.304749,435.387115 518.210938,435.840607 
z"/>
<path fill="#E2E2E2" opacity="1.000000" stroke="none" 
	d="
M688.302124,244.559937 
	C678.657715,242.219131 669.361023,239.469666 659.909912,237.233871 
	C669.409363,238.161041 678.762085,239.805374 687.907349,243.522064 
	C688.227173,244.039124 688.413208,244.194611 688.302124,244.559937 
z"/>
<path fill="#EDEDED" opacity="1.000000" stroke="none" 
	d="
M345.379059,76.623711 
	C353.102692,74.881409 360.702881,78.799866 368.773560,78.425621 
	C372.058136,78.273300 375.409302,79.557533 378.877808,80.564308 
	C379.200134,81.078896 379.374878,81.217339 379.262207,81.526718 
	C367.901611,80.152084 356.828461,78.606506 345.379059,76.623711 
z"/>
<path fill="#E6E6E6" opacity="1.000000" stroke="none" 
	d="
M607.844238,230.895386 
	C596.900696,232.087769 586.304138,230.686310 576.981689,223.376892 
	C577.020325,222.921646 577.231262,222.763718 577.800232,222.773544 
	C583.257568,225.228561 588.177490,228.208817 593.511475,229.589645 
	C597.993835,230.750015 602.958435,230.047623 607.844238,230.895386 
z"/>
<path fill="#E9E9E9" opacity="1.000000" stroke="none" 
	d="
M371.287872,198.034744 
	C368.044464,198.859085 365.209503,199.606720 362.374542,200.354340 
	C362.273102,199.942368 362.171661,199.530396 362.070221,199.118439 
	C370.403595,195.828232 379.126862,194.047928 388.222351,193.660797 
	C382.713684,195.093201 377.204987,196.525604 371.287872,198.034744 
z"/>
<path fill="#E9E9E9" opacity="1.000000" stroke="none" 
	d="
M833.235718,547.393188 
	C839.593933,553.176331 844.546021,559.766357 849.174805,566.664490 
	C842.532776,561.867371 838.152466,554.952637 832.937622,548.442993 
	C832.899292,547.833374 832.881714,547.583130 833.235718,547.393188 
z"/>
<path fill="#EDEDED" opacity="1.000000" stroke="none" 
	d="
M810.938843,483.578979 
	C802.332764,481.434784 794.032898,479.254395 785.375000,476.638000 
	C791.983215,476.082733 798.558594,478.013763 804.897156,480.546051 
	C806.948730,481.365662 809.581421,479.481812 811.032898,482.542725 
	C811.111389,483.153900 811.178284,483.348358 810.938843,483.578979 
z"/>
<path fill="#EAEAEA" opacity="1.000000" stroke="none" 
	d="
M269.060669,68.960732 
	C275.613647,69.202011 281.758972,68.428741 287.714081,70.210487 
	C278.392029,71.520874 269.180237,69.764877 259.881714,68.960464 
	C262.778351,68.960464 265.674988,68.960464 269.060669,68.960732 
z"/>
<path fill="#F1F1F1" opacity="1.000000" stroke="none" 
	d="
M360.710999,94.452477 
	C369.229858,95.811096 377.443237,97.353897 385.656616,98.896698 
	C377.099823,100.433502 369.314636,97.240524 361.111938,95.450180 
	C360.781921,94.927422 360.593750,94.782036 360.710999,94.452477 
z"/>
<path fill="#E9E9E9" opacity="1.000000" stroke="none" 
	d="
M418.730957,88.347733 
	C427.795990,88.436005 436.048462,91.034775 444.602173,94.113907 
	C445.004974,94.162399 445.350128,94.509743 445.191467,94.696228 
	C436.537354,93.003151 428.041870,91.123589 419.280701,89.098648 
	C418.829987,88.820656 418.644928,88.688049 418.730957,88.347733 
z"/>
<path fill="#F1F1F1" opacity="1.000000" stroke="none" 
	d="
M548.962158,422.975769 
	C553.308716,423.981140 554.941956,428.265808 558.553650,430.329285 
	C562.065063,432.335571 564.894348,435.535706 568.037354,438.580536 
	C568.051575,438.949493 567.770935,439.278748 567.630249,439.443054 
	C560.557495,434.914551 554.050781,429.737305 548.962158,422.975769 
z"/>
<path fill="#E6E6E6" opacity="1.000000" stroke="none" 
	d="
M800.647339,498.048706 
	C794.790527,499.125671 790.079468,496.916504 784.734253,494.120850 
	C791.397461,493.282562 796.933594,495.646576 802.513611,497.206543 
	C803.169006,497.389801 801.645813,497.838623 800.647339,498.048706 
z"/>
<path fill="#EAEAEA" opacity="1.000000" stroke="none" 
	d="
M674.426758,463.747650 
	C673.987122,463.627533 673.961243,463.500427 673.973877,463.436829 
	C684.219421,462.783264 694.446960,462.353851 704.571899,465.172791 
	C694.670044,464.737793 684.768250,464.302795 674.426758,463.747650 
z"/>
<path fill="#E9E9E9" opacity="1.000000" stroke="none" 
	d="
M412.193909,105.937447 
	C406.073273,106.166214 400.852966,104.204559 395.577179,102.331375 
	C394.093994,101.804779 392.314423,102.108849 390.670441,102.040909 
	C389.823273,102.005898 388.918457,101.970016 389.055695,100.787392 
	C389.151093,99.965584 389.868561,99.808716 390.536316,99.994110 
	C397.866547,102.029289 405.674591,102.268700 412.193909,105.937447 
z"/>
<path fill="#EDEDED" opacity="1.000000" stroke="none" 
	d="
M506.144379,296.141815 
	C505.165405,293.560760 506.847290,292.001923 507.985229,290.290161 
	C510.683105,286.231934 512.590271,281.633759 516.518066,278.065613 
	C517.083984,277.825226 517.337280,277.719208 517.921814,277.857971 
	C514.394287,283.757660 510.284607,289.251221 506.952576,295.650696 
	C506.625214,296.055725 506.493530,296.180786 506.144379,296.141815 
z"/>
<path fill="#E2E2E2" opacity="1.000000" stroke="none" 
	d="
M535.965210,194.024506 
	C535.549805,195.825684 534.236206,196.085892 532.599304,196.076279 
	C524.949219,196.031372 517.298706,196.056351 509.612701,195.166290 
	C518.115356,194.723694 526.618042,194.281082 535.571350,193.975784 
	C536.021973,194.113083 535.965515,194.062408 535.965210,194.024506 
z"/>
<path fill="#EDEDED" opacity="1.000000" stroke="none" 
	d="
M533.243164,451.447632 
	C538.958313,455.847504 544.246094,460.300781 550.348450,464.227112 
	C550.591858,464.456421 550.263428,464.766815 550.096375,464.918976 
	C543.666565,463.655884 539.956116,458.410492 535.071899,454.945831 
	C534.468750,454.517914 532.671875,454.419800 532.953552,452.437134 
	C532.927917,451.834625 532.918030,451.606781 533.243164,451.447632 
z"/>
<path fill="#E2E2E2" opacity="1.000000" stroke="none" 
	d="
M475.806641,158.315582 
	C483.318024,158.895096 490.670776,159.658813 497.850311,160.404541 
	C498.017731,160.963181 498.058563,161.099426 498.099365,161.235672 
	C490.928192,161.263382 483.760773,161.256027 476.418030,158.897369 
	C475.996979,158.838303 475.648010,158.499786 475.806641,158.315582 
z"/>
<path fill="#E6E6E6" opacity="1.000000" stroke="none" 
	d="
M403.718567,209.798630 
	C401.118835,213.342606 396.258087,212.295044 392.426453,213.742645 
	C389.688751,214.776947 386.085663,214.777588 382.424896,214.599670 
	C389.099060,212.601074 396.067230,210.343979 403.718567,209.798630 
z"/>
<path fill="#EAEAEA" opacity="1.000000" stroke="none" 
	d="
M425.977234,205.198883 
	C430.787842,204.458054 435.180847,203.773987 439.573822,203.089935 
	C432.952087,206.067444 426.169922,207.952423 417.494263,206.533325 
	C421.090332,205.963654 423.324951,205.609665 425.977234,205.198883 
z"/>
<path fill="#E6E6E6" opacity="1.000000" stroke="none" 
	d="
M792.782654,293.573822 
	C786.554932,289.449036 781.715515,284.414459 778.446289,277.835785 
	C783.255859,282.649536 788.065430,287.463287 792.977661,292.597900 
	C793.100159,293.160553 793.119934,293.402374 792.782654,293.573822 
z"/>
<path fill="#E2E2E2" opacity="1.000000" stroke="none" 
	d="
M241.688751,78.430954 
	C242.086914,78.639313 242.098892,78.625000 242.110046,78.627731 
	C234.783722,79.024826 227.424332,79.779579 220.198944,78.332932 
	C220.231689,77.779587 220.264450,77.226234 220.297195,76.672890 
	C227.294983,77.189453 234.292786,77.706024 241.688751,78.430954 
z"/>
<path fill="#E2E2E2" opacity="1.000000" stroke="none" 
	d="
M766.263794,472.698181 
	C758.881714,471.817627 751.753296,470.753906 744.624939,469.690155 
	C751.691528,468.905975 758.629211,469.122772 765.646851,471.974854 
	C766.179993,472.269745 766.348694,472.392365 766.263794,472.698181 
z"/>
<path fill="#EFEFEF" opacity="1.000000" stroke="none" 
	d="
M445.371033,95.024597 
	C445.032837,94.882713 445.017700,94.522598 445.011353,94.342499 
	C451.583466,93.919197 457.511749,96.728065 463.899048,98.506897 
	C464.196533,99.029648 464.329987,99.197952 464.247040,99.604919 
	C457.923492,98.284554 451.816345,96.725525 445.371033,95.024597 
z"/>
<path fill="#EDEDED" opacity="1.000000" stroke="none" 
	d="
M848.666382,347.411438 
	C845.478149,345.024323 842.379456,342.526489 839.387024,339.907288 
	C838.466614,339.101654 837.155640,338.116333 838.704407,336.649170 
	C840.496338,334.951721 841.843872,336.655579 842.119690,337.714447 
	C843.154053,341.685577 846.848511,343.287384 849.045288,346.565216 
	C849.060181,346.941132 848.796875,347.253998 848.666382,347.411438 
z"/>
<path fill="#E9E9E9" opacity="1.000000" stroke="none" 
	d="
M718.350525,283.981812 
	C717.999207,283.838318 717.989563,283.455963 717.983582,283.264832 
	C724.111084,284.979828 729.920837,287.639984 735.575439,290.685760 
	C729.341125,290.067200 723.657166,288.041595 718.350525,283.981812 
z"/>
<path fill="#E9E9E9" opacity="1.000000" stroke="none" 
	d="
M874.981018,610.449951 
	C874.992126,609.852234 875.002258,609.652832 875.033569,609.154663 
	C878.343994,614.665894 881.241211,620.653259 882.930786,627.329712 
	C882.586487,627.628357 882.998962,627.626465 882.796753,627.585754 
	C879.027710,622.448608 876.732727,616.772156 874.981018,610.449951 
z"/>
<path fill="#EFEFEF" opacity="1.000000" stroke="none" 
	d="
M927.104980,582.930786 
	C924.052429,583.966797 924.411133,580.679382 923.961182,579.864075 
	C921.606018,575.596924 917.513428,572.493286 916.140991,567.221191 
	C920.645569,571.286865 923.937439,576.635803 927.423218,582.267578 
	C927.561035,582.590881 927.255676,582.815674 927.104980,582.930786 
z"/>
<path fill="#E2E2E2" opacity="1.000000" stroke="none" 
	d="
M711.344238,238.613358 
	C710.935547,238.472427 710.928894,238.123550 710.951660,237.514008 
	C714.098450,236.555145 714.037292,239.534729 714.868408,241.002274 
	C716.942871,244.665649 718.529541,248.605331 719.915710,252.614716 
	C715.400574,248.851089 714.144470,243.308899 711.344238,238.613358 
z"/>
<path fill="#EFEFEF" opacity="1.000000" stroke="none" 
	d="
M269.510315,246.839111 
	C268.808533,250.346863 265.283447,248.903091 263.022308,250.314087 
	C259.721466,252.373871 255.801239,253.468216 251.445541,254.095245 
	C250.923630,253.991653 250.804703,253.832291 250.852753,253.425735 
	C257.019501,251.011322 263.019287,248.844086 269.510315,246.839111 
z"/>
<path fill="#EFEFEF" opacity="1.000000" stroke="none" 
	d="
M863.401611,559.184814 
	C859.798401,554.455933 856.412537,549.967224 853.026611,545.478516 
	C857.667786,548.899963 862.190430,552.414978 864.058777,558.596924 
	C863.928589,559.123779 863.773804,559.274414 863.401611,559.184814 
z"/>
<path fill="#E2E2E2" opacity="1.000000" stroke="none" 
	d="
M293.675293,155.845428 
	C298.891296,155.495819 303.661896,155.166855 308.720306,154.818039 
	C306.507507,157.467224 301.117615,157.873672 287.644287,156.160767 
	C289.506165,156.062546 291.368011,155.964325 293.675293,155.845428 
z"/>
<path fill="#E2E2E2" opacity="1.000000" stroke="none" 
	d="
M502.527100,133.079315 
	C502.076447,131.905731 502.615082,131.672211 503.347168,131.942596 
	C508.889282,133.989532 514.417480,136.074066 519.950012,138.146881 
	C519.797852,138.573380 519.645691,138.999863 519.493469,139.426361 
	C513.928894,137.384415 508.364288,135.342468 502.527100,133.079315 
z"/>
<path fill="#EDEDED" opacity="1.000000" stroke="none" 
	d="
M202.176743,165.679153 
	C196.848358,169.808975 190.959122,167.296967 185.317093,167.202087 
	C190.589828,166.469757 195.862549,165.737411 201.579773,165.047638 
	C202.134598,165.223663 202.244919,165.357086 202.176743,165.679153 
z"/>
<path fill="#E6E6E6" opacity="1.000000" stroke="none" 
	d="
M559.462219,202.116608 
	C556.478149,197.442352 554.463257,192.601151 553.220825,187.399277 
	C556.492126,191.491653 559.030762,195.946930 560.013062,201.595566 
	C560.007935,201.997406 559.623657,202.300537 559.462219,202.116608 
z"/>
<path fill="#EFEFEF" opacity="1.000000" stroke="none" 
	d="
M896.320190,546.131592 
	C890.869995,543.522888 886.926575,539.613586 882.789185,535.941406 
	C883.120361,535.501648 883.451477,535.061890 883.782654,534.622131 
	C887.912170,538.044739 892.041687,541.467407 896.383911,545.141724 
	C896.637085,545.658142 896.677490,545.922791 896.320190,546.131592 
z"/>
<path fill="#EDEDED" opacity="1.000000" stroke="none" 
	d="
M536.853760,299.802551 
	C535.417542,305.950562 530.878052,310.354187 528.586304,315.972992 
	C529.823486,310.295319 532.544006,305.316681 535.939819,300.294586 
	C536.325073,299.892639 536.473022,299.733948 536.853760,299.802551 
z"/>
<path fill="#E6E6E6" opacity="1.000000" stroke="none" 
	d="
M475.585266,158.017303 
	C475.965240,158.131363 475.983398,158.484726 475.990173,158.661514 
	C470.740417,158.814636 465.376312,160.097961 459.228912,157.307022 
	C465.322021,156.184540 470.251282,157.565018 475.585266,158.017303 
z"/>
<path fill="#E6E6E6" opacity="1.000000" stroke="none" 
	d="
M826.648560,487.974915 
	C827.006714,488.152435 827.013428,488.548523 827.015991,488.746582 
	C821.757690,487.281494 816.496704,485.618378 810.934204,483.785217 
	C810.632568,483.615173 810.801819,483.264252 810.923157,483.111847 
	C816.505249,483.378418 821.740112,484.509216 826.648560,487.974915 
z"/>
<path fill="#E6E6E6" opacity="1.000000" stroke="none" 
	d="
M295.827087,219.609253 
	C300.667725,219.183121 304.360229,215.124649 310.474579,216.375214 
	C303.785736,218.691086 298.205383,220.623169 292.625000,222.555237 
	C293.132111,220.586273 294.918762,221.273956 295.827087,219.609253 
z"/>
<path fill="#DBDBDB" opacity="1.000000" stroke="none" 
	d="
M642.751404,234.858368 
	C638.262512,234.148422 634.198608,233.493774 630.134766,232.839111 
	C630.085632,233.258011 630.036499,233.676910 629.987366,234.095810 
	C636.646423,233.330704 643.476013,231.095490 650.886292,235.893387 
	C647.399109,235.450256 645.287781,235.181961 642.751404,234.858368 
z"/>
<path fill="#EAEAEA" opacity="1.000000" stroke="none" 
	d="
M360.156311,200.704071 
	C354.865967,202.576080 349.775909,204.312286 344.307220,204.634338 
	C349.099792,202.556488 353.743103,200.061661 359.583801,200.083817 
	C360.114990,200.296219 360.232239,200.417999 360.156311,200.704071 
z"/>
<path fill="#E9E9E9" opacity="1.000000" stroke="none" 
	d="
M713.701599,466.164856 
	C712.076721,465.769043 710.645996,466.521759 709.036743,464.900513 
	C714.996338,465.520050 720.541748,463.768250 725.729858,466.486176 
	C721.807068,467.461823 717.982300,466.471680 713.701599,466.164856 
z"/>
<path fill="#E9E9E9" opacity="1.000000" stroke="none" 
	d="
M594.911987,453.112946 
	C600.555298,453.419067 605.639038,455.514221 610.963074,457.589905 
	C605.373901,458.349884 600.482910,455.405121 594.938477,453.770691 
	C594.661621,453.574585 594.798706,453.248657 594.911987,453.112946 
z"/>
<path fill="#E6E6E6" opacity="1.000000" stroke="none" 
	d="
M418.634949,87.965622 
	C419.001984,88.140038 419.006897,88.546669 419.010956,88.749962 
	C412.911224,88.013344 406.786102,87.175690 401.200256,84.857964 
	C401.405121,84.725449 401.314850,84.904602 401.346558,84.808838 
	C407.183380,85.026497 412.796326,86.044403 418.634949,87.965622 
z"/>
<path fill="#E9E9E9" opacity="1.000000" stroke="none" 
	d="
M371.874054,216.841797 
	C369.436432,219.465210 361.672699,221.255722 356.376129,220.130524 
	C361.443024,218.963425 366.509918,217.796341 371.874054,216.841797 
z"/>
<path fill="#DBDBDB" opacity="1.000000" stroke="none" 
	d="
M485.595703,125.699448 
	C489.486206,127.021523 493.015045,128.218887 496.543854,129.416260 
	C490.486298,130.279984 485.875916,126.509964 479.764496,125.645187 
	C481.327637,123.709541 482.140076,124.629181 482.890717,124.810585 
	C483.686890,125.002975 484.454132,125.314972 485.595703,125.699448 
z"/>
<path fill="#EFEFEF" opacity="1.000000" stroke="none" 
	d="
M342.277466,76.603920 
	C336.555176,76.098976 331.114899,75.370499 325.674652,74.642014 
	C331.045410,74.179527 336.420502,73.224533 341.865662,75.509552 
	C342.220642,76.040688 342.390076,76.210541 342.277466,76.603920 
z"/>
<path fill="#E2E2E2" opacity="1.000000" stroke="none" 
	d="
M860.711426,582.725220 
	C860.806946,583.053589 860.355347,583.060486 860.129883,583.046753 
	C856.677063,579.461182 853.410461,575.914001 852.814758,570.651978 
	C855.415100,574.566956 858.015442,578.481873 860.711426,582.725220 
z"/>
<path fill="#E9E9E9" opacity="1.000000" stroke="none" 
	d="
M530.901306,264.280701 
	C533.478638,259.278229 537.843445,257.066254 542.687988,255.472198 
	C539.166260,258.358856 535.644470,261.245514 531.837036,264.303009 
	C531.323730,264.525696 531.096069,264.577515 530.901306,264.280701 
z"/>
<path fill="#E2E2E2" opacity="1.000000" stroke="none" 
	d="
M894.271484,623.366211 
	C894.237732,622.985901 894.668884,622.947998 894.885010,622.958984 
	C897.692505,627.173523 899.656311,631.542358 898.703064,637.852966 
	C897.016296,632.442505 895.660767,628.094482 894.271484,623.366211 
z"/>
<path fill="#EDEDED" opacity="1.000000" stroke="none" 
	d="
M230.341095,161.682281 
	C231.052795,164.460632 228.871277,164.009766 227.123093,164.023941 
	C222.990982,164.057449 218.858414,164.034698 214.701813,163.692307 
	C219.807571,162.860931 224.851501,161.653015 230.341095,161.682281 
z"/>
<path fill="#EFEFEF" opacity="1.000000" stroke="none" 
	d="
M796.231323,520.726501 
	C792.213074,518.716431 788.484192,516.960388 784.755371,515.204407 
	C784.971497,514.734558 785.187683,514.264771 785.403809,513.794922 
	C789.636353,515.824890 793.869629,517.853149 798.100159,519.887268 
	C798.509094,520.083923 799.030518,520.475586 798.449402,520.801025 
	C797.934448,521.089417 797.173218,520.937866 796.231323,520.726501 
z"/>
<path fill="#F1F1F1" opacity="1.000000" stroke="none" 
	d="
M357.478394,153.912979 
	C357.020020,153.815552 357.027435,153.499969 357.023804,153.342194 
	C366.369934,153.114105 375.719727,153.043823 385.528503,153.070374 
	C385.987488,153.167206 385.983490,153.495071 385.985168,153.658997 
	C376.636841,153.885422 367.286804,153.947922 357.478394,153.912979 
z"/>
<path fill="#E2E2E2" opacity="1.000000" stroke="none" 
	d="
M446.163086,157.056717 
	C443.913269,156.702789 441.685089,158.010803 440.179077,155.324982 
	C445.455841,154.558304 450.360840,156.073776 455.366028,157.056717 
	C452.451935,157.056717 449.537811,157.056717 446.163086,157.056717 
z"/>
<path fill="#E2E2E2" opacity="1.000000" stroke="none" 
	d="
M299.780212,139.528473 
	C296.697815,139.786606 294.065857,139.978104 291.433929,140.169617 
	C296.488037,136.572266 302.022095,138.515762 307.434601,138.824387 
	C305.033264,139.036880 302.631958,139.249359 299.780212,139.528473 
z"/>
<path fill="#E2E2E2" opacity="1.000000" stroke="none" 
	d="
M498.716522,175.977188 
	C493.720032,176.377563 489.134369,176.728668 484.424805,177.089264 
	C484.398529,175.724747 485.012085,175.013748 485.995392,175.010391 
	C490.441254,174.995209 494.887573,175.097809 499.333496,175.171753 
	C499.340851,175.171875 499.374451,175.386292 499.343597,175.484192 
	C499.294708,175.639420 499.201691,175.780716 498.716522,175.977188 
z"/>
<path fill="#E9E9E9" opacity="1.000000" stroke="none" 
	d="
M531.396912,264.338531 
	C528.389099,267.669067 525.226929,270.864288 521.798157,274.249054 
	C521.315491,274.494293 521.099426,274.550018 520.911987,274.272217 
	C522.706177,269.374542 526.601074,266.791656 530.580566,263.945312 
	C530.934143,263.932068 531.242493,264.203217 531.396912,264.338531 
z"/>
<path fill="#DBDBDB" opacity="1.000000" stroke="none" 
	d="
M448.357758,137.985718 
	C452.752655,138.279678 456.870514,137.066162 460.562317,139.874619 
	C455.238770,139.498306 449.915222,139.122009 444.591705,138.745712 
	C444.594330,138.565063 444.596954,138.384399 444.599579,138.203751 
	C445.702362,138.133575 446.805176,138.063385 448.357758,137.985718 
z"/>
<path fill="#E2E2E2" opacity="1.000000" stroke="none" 
	d="
M740.193970,467.004150 
	C741.340637,467.562866 742.075134,468.068756 743.345459,468.943787 
	C737.892639,469.364868 733.289612,468.003723 728.618591,466.951355 
	C732.339661,466.951355 736.060730,466.951355 740.193970,467.004150 
z"/>
<path fill="#E9E9E9" opacity="1.000000" stroke="none" 
	d="
M276.551697,227.521271 
	C280.911194,225.975922 284.577820,222.255249 291.265747,223.322784 
	C285.696991,225.251312 281.441986,226.724869 276.860107,227.839600 
	C276.533173,227.480774 276.555603,227.521866 276.551697,227.521271 
z"/>
<path fill="#EDEDED" opacity="1.000000" stroke="none" 
	d="
M901.016235,640.289978 
	C901.270508,644.350891 904.996277,647.373230 902.159302,651.682983 
	C901.154114,647.783875 899.967407,643.947571 899.269165,640.024353 
	C899.047607,638.779480 900.264954,638.684021 901.016235,640.289978 
z"/>
<path fill="#E2E2E2" opacity="1.000000" stroke="none" 
	d="
M193.492981,277.263519 
	C194.032791,274.379944 196.925964,275.032806 198.652023,273.981049 
	C200.691818,272.738129 203.044403,272.008545 205.635773,271.043762 
	C206.121704,271.169403 206.233276,271.307770 206.176270,271.652649 
	C202.323792,274.272552 198.545837,276.467651 193.715988,277.100647 
	C193.376541,277.191986 193.458801,277.232849 193.492981,277.263519 
z"/>
<path fill="#E6E6E6" opacity="1.000000" stroke="none" 
	d="
M803.603577,297.006195 
	C803.992310,296.978729 804.032104,297.324585 804.022217,297.498352 
	C799.251404,299.624939 796.266418,296.192108 792.649170,293.751068 
	C792.425598,293.503448 792.751892,293.209869 792.916138,293.064331 
	C796.616211,293.902039 799.513733,296.457428 803.603577,297.006195 
z"/>
<path fill="#EDEDED" opacity="1.000000" stroke="none" 
	d="
M451.889160,116.030807 
	C456.344666,115.570312 460.127930,118.062889 464.629913,119.094505 
	C465.085663,119.386925 465.195618,119.532249 465.138245,119.893707 
	C460.401703,119.940399 456.182770,118.397064 451.980591,116.372253 
	C451.982880,115.947273 451.910431,115.993462 451.889160,116.030807 
z"/>
<path fill="#EAEAEA" opacity="1.000000" stroke="none" 
	d="
M870.614197,527.271179 
	C867.554138,525.191406 864.077148,524.383667 861.700623,521.979248 
	C861.970886,521.534241 862.241150,521.089233 862.511414,520.644226 
	C865.746460,522.629700 868.991638,524.599060 872.207031,526.615845 
	C872.772278,526.970276 873.213562,527.604492 872.214478,527.953430 
	C871.883789,528.068909 871.366150,527.649231 870.614197,527.271179 
z"/>
<path fill="#E6E6E6" opacity="1.000000" stroke="none" 
	d="
M330.801331,227.290436 
	C334.815735,226.008621 338.595673,224.902008 342.375641,223.795395 
	C339.262390,226.356445 336.061829,228.581879 331.425629,227.941467 
	C330.861450,227.721634 330.714172,227.593643 330.801331,227.290436 
z"/>
<path fill="#DBDBDB" opacity="1.000000" stroke="none" 
	d="
M379.349609,81.843491 
	C378.974792,81.697655 378.932648,81.314552 378.979004,81.127502 
	C383.180969,81.099846 387.536102,80.101753 391.614685,83.448532 
	C387.919434,83.233627 383.821930,82.611473 379.349609,81.843491 
z"/>
<path fill="#E9E9E9" opacity="1.000000" stroke="none" 
	d="
M168.339142,169.673706 
	C171.108185,169.276199 173.460297,168.202576 175.850815,169.426193 
	C175.983276,169.493988 176.011627,170.204178 175.864563,170.313095 
	C173.694702,171.920044 171.216248,170.758316 168.884583,171.001343 
	C167.110458,171.186249 165.301605,171.038040 163.004608,171.038040 
	C164.746124,169.435226 166.499161,170.248795 168.339142,169.673706 
z"/>
<path fill="#E9E9E9" opacity="1.000000" stroke="none" 
	d="
M296.504395,237.800003 
	C294.292847,240.665359 289.465912,242.159561 283.959686,241.491104 
	C288.705780,239.954712 292.353210,238.773972 296.504395,237.800003 
z"/>
<path fill="#E6E6E6" opacity="1.000000" stroke="none" 
	d="
M219.174835,265.321167 
	C221.662674,264.653961 223.491608,263.041870 226.002045,263.698669 
	C222.974457,266.428101 219.134735,267.183228 214.520676,268.469360 
	C215.847168,266.175873 217.570999,266.190125 219.174835,265.321167 
z"/>
<path fill="#E2E2E2" opacity="1.000000" stroke="none" 
	d="
M429.413391,184.885651 
	C428.994171,184.851532 428.994293,184.508179 428.994019,184.336487 
	C432.552673,181.539597 436.529266,181.687881 440.687256,182.852829 
	C437.069031,183.541809 433.450836,184.230789 429.413391,184.885651 
z"/>
<path fill="#E6E6E6" opacity="1.000000" stroke="none" 
	d="
M243.532013,144.998169 
	C243.990463,144.974182 244.030838,145.324249 244.021515,145.500214 
	C240.946503,146.176239 237.883514,146.693878 234.813354,147.164688 
	C233.989502,147.291016 233.099686,147.266068 233.035248,146.115723 
	C232.967239,144.902008 233.907333,144.959305 234.712753,144.961456 
	C237.499725,144.968903 240.286636,145.000031 243.532013,144.998169 
z"/>
<path fill="#EAEAEA" opacity="1.000000" stroke="none" 
	d="
M244.670044,255.809555 
	C241.753021,258.761108 237.922729,260.228180 233.399933,260.945404 
	C232.828201,260.727661 232.646225,260.590637 232.741837,260.254395 
	C236.799469,258.589142 240.579529,257.123138 244.670044,255.809555 
z"/>
<path fill="#EAEAEA" opacity="1.000000" stroke="none" 
	d="
M448.474854,201.763855 
	C451.432648,201.223755 453.974670,200.548996 457.163635,201.172363 
	C452.925995,204.354019 448.586395,202.423996 444.119690,203.149353 
	C445.455414,201.389038 446.924652,202.247772 448.474854,201.763855 
z"/>
<path fill="#EFEFEF" opacity="1.000000" stroke="none" 
	d="
M810.294189,528.087280 
	C806.057556,526.900085 802.733337,524.868408 800.106628,521.692322 
	C803.924805,522.487061 806.870422,524.942932 810.294678,527.163086 
	C810.574646,527.631226 810.615540,527.869629 810.294189,528.087280 
z"/>
<path fill="#DBDBDB" opacity="1.000000" stroke="none" 
	d="
M853.390015,517.862915 
	C852.040649,516.828308 851.020447,515.968506 850.000183,515.108765 
	C853.768127,515.782715 857.031067,517.330017 859.704346,519.495178 
	C857.876953,519.050232 855.798035,518.544006 853.390015,517.862915 
z"/>
<path fill="#EDEDED" opacity="1.000000" stroke="none" 
	d="
M756.266479,503.651062 
	C751.516479,504.353607 748.140442,501.192780 743.943359,500.714020 
	C748.087097,499.950226 751.647522,501.641876 755.662109,502.884216 
	C756.166443,503.188416 756.352112,503.317749 756.266479,503.651062 
z"/>
<path fill="#E2E2E2" opacity="1.000000" stroke="none" 
	d="
M517.957703,436.481567 
	C517.963684,435.924408 517.964905,435.741913 517.980835,435.286072 
	C520.316895,437.625183 522.638367,440.237610 524.963379,443.438843 
	C521.142212,443.091309 519.585693,439.936554 517.957703,436.481567 
z"/>
<path fill="#E2E2E2" opacity="1.000000" stroke="none" 
	d="
M763.752319,278.502502 
	C760.075989,276.651642 757.277100,273.981750 754.508362,270.774719 
	C754.388672,270.308441 754.454956,270.126404 754.810608,269.918671 
	C758.024048,272.349243 760.948059,274.805573 763.982666,277.586212 
	C764.061890,278.080933 764.030640,278.251343 763.752319,278.502502 
z"/>
<path fill="#EDEDED" opacity="1.000000" stroke="none" 
	d="
M525.182739,443.602234 
	C527.867126,445.954926 530.523926,448.467896 533.379517,451.248596 
	C533.578247,451.516357 533.258484,451.789856 533.098145,451.926147 
	C529.162476,450.838593 527.054504,447.800262 524.967407,444.383240 
	C524.966980,444.027679 525.155273,443.762482 525.182739,443.602234 
z"/>
<path fill="#DBDBDB" opacity="1.000000" stroke="none" 
	d="
M505.533752,295.961426 
	C505.926880,295.977814 506.338898,295.900940 506.547913,295.915833 
	C505.400482,298.974091 504.044037,302.017517 502.339966,304.980164 
	C501.992340,304.899414 502.048096,304.944611 502.056366,304.979340 
	C501.227295,301.359314 503.046265,298.605469 505.533752,295.961426 
z"/>
<path fill="#E2E2E2" opacity="1.000000" stroke="none" 
	d="
M360.652832,94.123566 
	C361.016479,94.268295 361.044159,94.673477 361.007141,94.873138 
	C357.009674,95.651527 353.344727,94.690147 349.412964,92.892883 
	C348.994110,92.849693 348.984161,92.487236 348.973907,92.306229 
	C352.738831,92.743103 356.513977,93.360970 360.652832,94.123566 
z"/>
<path fill="#EAEAEA" opacity="1.000000" stroke="none" 
	d="
M202.438248,165.947128 
	C201.998260,165.867798 202.011002,165.478989 202.017639,165.284607 
	C205.517029,164.402893 209.005127,163.661804 213.152267,163.978882 
	C209.810593,167.158859 206.169693,165.674240 202.438248,165.947128 
z"/>
<path fill="#838383" opacity="1.000000" stroke="none" 
	d="
M109.870087,73.064423 
	C105.633789,74.706100 101.245384,73.871887 96.854912,73.672234 
	C100.876114,72.490150 104.958046,71.783363 109.595604,71.940002 
	C109.945107,72.262276 109.855568,72.488472 109.870087,73.064423 
z"/>
<path fill="#E2E2E2" opacity="1.000000" stroke="none" 
	d="
M201.515167,151.917908 
	C201.949249,151.878494 202.010056,152.339890 202.010513,152.572571 
	C198.608307,153.533600 195.205658,154.261917 191.388428,154.954849 
	C190.973846,154.919449 190.990677,154.527313 190.991425,154.331070 
	C194.049026,151.990662 197.483017,151.593903 201.515167,151.917908 
z"/>
<path fill="#E2E2E2" opacity="1.000000" stroke="none" 
	d="
M243.567352,160.129089 
	C244.006821,160.165741 244.036163,160.663513 244.044662,160.912689 
	C239.988007,163.082764 235.726028,161.613861 231.087357,161.663055 
	C230.609512,161.439117 230.674683,161.460861 230.651596,161.478027 
	C234.794968,161.027618 238.961411,160.560028 243.567352,160.129089 
z"/>
<path fill="#DBDBDB" opacity="1.000000" stroke="none" 
	d="
M465.103210,120.469170 
	C464.970886,120.109833 464.921570,119.675430 464.948669,119.458519 
	C468.363586,120.224632 471.751404,121.207657 476.398773,122.556152 
	C471.500549,123.478424 468.425140,121.827904 465.103210,120.469170 
z"/>
<path fill="#E2E2E2" opacity="1.000000" stroke="none" 
	d="
M273.407837,141.918274 
	C272.958710,141.702347 272.954895,141.527847 272.947998,141.091553 
	C276.644409,138.761154 280.543915,140.545578 284.412476,140.725586 
	C280.892700,141.136963 277.372925,141.548340 273.407837,141.918274 
z"/>
<path fill="#E6E6E6" opacity="1.000000" stroke="none" 
	d="
M756.346985,504.008179 
	C755.995239,503.855042 755.989746,503.457031 755.985229,503.258057 
	C759.454895,503.734344 762.816345,504.714020 766.294006,506.509949 
	C762.091797,508.289459 759.694946,505.148956 756.346985,504.008179 
z"/>
<path fill="#DBDBDB" opacity="1.000000" stroke="none" 
	d="
M784.655029,476.032715 
	C785.016968,476.202026 785.032471,476.507965 785.025146,476.660980 
	C781.846802,476.187164 778.675842,475.560333 775.504822,474.933472 
	C778.539490,474.497833 781.780762,472.328857 784.655029,476.032715 
z"/>
<path fill="#EDEDED" opacity="1.000000" stroke="none" 
	d="
M776.661377,510.489990 
	C773.513062,512.018982 771.031372,508.419861 767.632019,508.916595 
	C767.489563,508.937439 767.019958,508.132568 767.062622,507.752747 
	C767.215759,506.389191 768.216797,506.898865 768.901245,507.146271 
	C771.391357,508.046326 773.851074,509.030365 776.661377,510.489990 
z"/>
<path fill="#E6E6E6" opacity="1.000000" stroke="none" 
	d="
M813.749756,508.925110 
	C818.072693,508.728363 819.634399,512.105286 821.579773,515.051208 
	C819.068787,513.365234 816.557800,511.679291 813.830200,509.745850 
	C813.557190,509.302582 813.500793,509.106720 813.749756,508.925110 
z"/>
<path fill="#E6E6E6" opacity="1.000000" stroke="none" 
	d="
M537.454468,300.035583 
	C537.086609,300.029846 536.632202,300.054565 536.404663,300.052917 
	C538.103394,297.353577 540.029541,294.655853 542.213013,291.758179 
	C542.691467,291.502045 542.912659,291.445801 543.101135,291.730255 
	C542.072815,295.223419 540.108032,297.737976 537.454468,300.035583 
z"/>
<path fill="#E2E2E2" opacity="1.000000" stroke="none" 
	d="
M474.750488,141.116959 
	C473.444855,140.794312 472.348663,141.479324 471.096375,139.948776 
	C475.601288,140.219421 479.685669,138.970932 483.511505,141.697479 
	C480.601959,142.371323 477.928101,141.037064 474.750488,141.116959 
z"/>
<path fill="#F1F1F1" opacity="1.000000" stroke="none" 
	d="
M546.269043,163.259384 
	C545.489746,160.619492 544.965759,158.245117 544.267273,155.923233 
	C544.000183,155.035538 543.814880,154.193344 544.861267,154.121124 
	C545.470154,154.079086 546.633911,154.820709 546.693054,155.312531 
	C546.963562,157.562454 546.931885,159.848694 546.931030,162.556732 
	C546.720398,163.176331 546.587524,163.361084 546.269043,163.259384 
z"/>
<path fill="#F1F1F1" opacity="1.000000" stroke="none" 
	d="
M543.313354,415.546783 
	C545.845093,417.202240 548.533691,418.702637 549.092651,422.453430 
	C549.158630,422.782990 549.234070,422.709778 549.271790,422.656006 
	C545.648682,421.995880 544.767456,418.607849 543.145264,415.843262 
	C543.385864,415.484436 543.327454,415.516602 543.313354,415.546783 
z"/>
<path fill="#E9E9E9" opacity="1.000000" stroke="none" 
	d="
M524.249634,142.804535 
	C523.455872,141.105179 521.146301,141.545090 520.953430,139.710083 
	C525.641052,139.559250 526.269043,140.362030 525.810181,145.934464 
	C524.312683,145.421005 525.454834,143.764175 524.249634,142.804535 
z"/>
<path fill="#E6E6E6" opacity="1.000000" stroke="none" 
	d="
M824.727905,353.728638 
	C828.368591,353.047607 830.173218,356.544891 833.312256,358.177826 
	C833.571960,358.659698 833.603333,358.896851 833.276611,359.112427 
	C829.401245,358.744568 827.517395,355.829010 824.727905,353.728638 
z"/>
<path fill="#E6E6E6" opacity="1.000000" stroke="none" 
	d="
M546.043213,163.383606 
	C546.083313,162.972946 546.468262,162.985703 546.660767,162.988647 
	C548.257019,166.001617 550.032288,168.933670 548.640625,172.804993 
	C546.600647,170.014130 546.929016,166.699097 546.043213,163.383606 
z"/>
<path fill="#DBDBDB" opacity="1.000000" stroke="none" 
	d="
M329.971436,227.840393 
	C326.720734,229.769989 323.550323,232.073288 318.793335,230.475296 
	C322.484802,229.435257 325.621460,228.551529 329.143433,227.603210 
	C329.528748,227.538620 329.911224,227.650467 329.971436,227.840393 
z"/>
<path fill="#3F3F3F" opacity="1.000000" stroke="none" 
	d="
M525.260193,175.040009 
	C525.751648,175.424164 527.765625,175.574463 526.291809,175.710632 
	C520.876404,176.210999 515.386963,175.909088 509.906372,175.042633 
	C514.888245,175.042633 519.870056,175.042633 525.260193,175.040009 
z"/>
<path fill="#E2E2E2" opacity="1.000000" stroke="none" 
	d="
M591.690125,262.800049 
	C594.359314,261.352448 597.474548,260.829498 601.350952,260.914062 
	C598.346924,264.425568 594.968445,262.614929 591.690125,262.800049 
z"/>
<path fill="#F1F1F1" opacity="1.000000" stroke="none" 
	d="
M727.732300,259.956085 
	C731.513794,259.833923 733.482483,262.427368 736.061890,264.550293 
	C736.262756,264.821075 736.335876,264.757141 736.366394,264.702789 
	C732.643005,265.679504 730.781494,262.325806 727.796753,260.798248 
	C727.516907,260.358002 727.469177,260.156342 727.732300,259.956085 
z"/>
<path fill="#E2E2E2" opacity="1.000000" stroke="none" 
	d="
M743.128296,251.208038 
	C743.035217,250.855927 742.988159,250.417999 742.998169,250.197998 
	C745.805725,251.913879 748.153992,254.052658 746.445740,258.581665 
	C745.233032,255.940903 744.227173,253.750534 743.128296,251.208038 
z"/>
<path fill="#E2E2E2" opacity="1.000000" stroke="none" 
	d="
M151.379547,163.807907 
	C150.988190,163.794724 150.976318,163.505096 150.982605,163.360291 
	C153.127197,160.399719 156.178894,160.903915 159.537399,160.973694 
	C159.961884,160.967010 160.184402,161.276413 160.239258,161.458908 
	C157.453033,162.367966 154.611969,163.094528 151.379547,163.807907 
z"/>
<path fill="#E6E6E6" opacity="1.000000" stroke="none" 
	d="
M910.261169,559.482239 
	C912.437378,561.723511 914.302551,563.896973 916.238770,566.379700 
	C916.309875,566.688965 916.186157,566.878052 916.091797,566.940186 
	C912.655762,566.227783 911.602722,563.229614 909.958374,560.423950 
	C909.949219,559.838928 909.949707,559.626648 910.261169,559.482239 
z"/>
<path fill="#F1F1F1" opacity="1.000000" stroke="none" 
	d="
M522.026001,352.950104 
	C522.026001,355.722687 522.026001,358.022766 522.026001,360.322845 
	C520.600769,354.748657 520.739746,349.182617 522.026001,343.605347 
	C522.026001,346.562775 522.026001,349.520172 522.026001,352.950104 
z"/>
<path fill="#E2E2E2" opacity="1.000000" stroke="none" 
	d="
M734.351868,497.954926 
	C733.991882,497.790649 733.982788,497.494293 733.986694,497.346069 
	C736.956238,497.726959 739.963440,498.114166 742.635193,499.681274 
	C739.886292,499.641388 736.785706,501.401733 734.351868,497.954926 
z"/>
<path fill="#DBDBDB" opacity="1.000000" stroke="none" 
	d="
M306.636169,234.511566 
	C304.188354,236.522400 301.361206,238.273819 297.415924,238.009888 
	C297.008118,238.006775 296.813416,237.762741 296.802124,237.605865 
	C299.946442,236.384155 303.102051,235.319321 306.636169,234.511566 
z"/>
<path fill="#E2E2E2" opacity="1.000000" stroke="none" 
	d="
M559.398071,202.258759 
	C559.300781,201.932678 559.655273,201.955292 559.831604,201.976349 
	C562.653992,203.071274 563.893921,205.107574 564.179993,208.209488 
	C560.962280,207.965469 561.226440,204.465607 559.398071,202.258759 
z"/>
<path fill="#E2E2E2" opacity="1.000000" stroke="none" 
	d="
M381.606476,214.177948 
	C382.004547,214.195175 382.008392,214.492981 382.006622,214.641891 
	C379.126068,216.065887 376.415802,218.042938 372.571045,217.006958 
	C372.171265,217.054367 372.241516,217.117569 372.278381,217.160553 
	C374.740723,214.614197 378.319702,215.396133 381.606476,214.177948 
z"/>
<path fill="#E6E6E6" opacity="1.000000" stroke="none" 
	d="
M323.849487,209.952789 
	C325.177734,210.005814 326.152435,210.060532 328.534088,210.194199 
	C324.438477,211.692245 321.787628,213.178192 317.684998,212.994354 
	C320.143097,211.708450 321.819519,210.831451 323.849487,209.952789 
z"/>
<path fill="#EDEDED" opacity="1.000000" stroke="none" 
	d="
M206.398560,271.940308 
	C206.007690,271.859192 206.007996,271.445129 206.009064,271.238098 
	C206.141998,270.936462 206.260651,270.797821 206.407654,270.753784 
	C208.903152,270.005493 210.925522,267.797211 213.838882,268.339661 
	C212.040894,270.623505 209.316910,271.134369 206.398560,271.940308 
z"/>
<path fill="#F1F1F1" opacity="1.000000" stroke="none" 
	d="
M392.410339,83.972870 
	C392.016968,83.855774 392.016022,83.509216 392.017090,83.335938 
	C394.962280,83.260460 398.068665,81.912506 401.120911,84.339607 
	C401.468597,84.533920 401.470764,84.599930 401.483093,84.573105 
	C398.490662,86.442474 395.702209,84.218643 392.410339,83.972870 
z"/>
<path fill="#E9E9E9" opacity="1.000000" stroke="none" 
	d="
M837.380615,509.018646 
	C840.362976,509.863251 843.044861,510.969177 845.726807,512.075134 
	C842.441162,512.165771 839.355408,511.799744 837.380615,509.018646 
z"/>
<path fill="#E2E2E2" opacity="1.000000" stroke="none" 
	d="
M649.632019,262.200500 
	C650.012695,262.341675 650.034119,262.680481 650.013794,262.848999 
	C647.085205,262.476532 643.758362,264.371216 640.824768,261.339752 
	C643.991028,260.590271 646.575684,261.993317 649.632019,262.200500 
z"/>
<path fill="#E9E9E9" opacity="1.000000" stroke="none" 
	d="
M578.102905,222.580032 
	C577.933289,222.963806 577.708435,222.986282 577.146484,223.044174 
	C575.147827,221.754654 573.486389,220.429703 571.636719,218.845505 
	C571.404358,218.332657 571.360229,218.079056 571.699341,217.872665 
	C574.908997,218.189896 576.045532,220.804825 578.102905,222.580032 
z"/>
<path fill="#E2E2E2" opacity="1.000000" stroke="none" 
	d="
M863.289673,559.272949 
	C863.184265,558.944641 863.634827,558.925720 863.859131,558.949463 
	C867.056946,559.888123 868.101379,562.010193 867.948486,565.368103 
	C865.550598,563.833679 864.936646,561.333618 863.289673,559.272949 
z"/>
<path fill="#E2E2E2" opacity="1.000000" stroke="none" 
	d="
M507.396362,162.734955 
	C510.042419,161.469849 512.519409,163.217743 515.226196,163.440750 
	C512.642700,163.849655 510.043579,164.941895 507.396362,162.734955 
z"/>
<path fill="#EFEFEF" opacity="1.000000" stroke="none" 
	d="
M837.230164,361.454956 
	C839.433777,363.009552 841.309448,364.489197 843.391663,366.221375 
	C843.598267,366.473907 843.268982,366.770966 843.102539,366.917511 
	C840.101135,366.815735 838.966736,364.199554 836.960815,362.416016 
	C836.933472,361.827454 836.917786,361.603699 837.230164,361.454956 
z"/>
<path fill="#F1F1F1" opacity="1.000000" stroke="none" 
	d="
M727.683350,260.408417 
	C725.388733,259.151184 723.363098,257.587036 721.315186,254.704742 
	C724.702454,255.608017 726.308838,257.493347 728.032898,259.587280 
	C728.043091,259.957458 727.802124,260.257202 727.683350,260.408417 
z"/>
<path fill="#E6E6E6" opacity="1.000000" stroke="none" 
	d="
M551.152161,283.693970 
	C550.439758,287.068176 547.004761,287.460083 545.420959,289.982849 
	C544.822754,290.144257 544.542725,290.186615 544.316528,289.807617 
	C546.202087,287.519287 548.033936,285.652344 550.140381,283.603333 
	C550.681458,283.378876 550.947876,283.336517 551.152161,283.693970 
z"/>
<path fill="#F1F1F1" opacity="1.000000" stroke="none" 
	d="
M404.397034,209.722672 
	C404.015381,209.482635 404.018127,209.488113 404.017792,209.492950 
	C406.929504,208.887177 409.774384,207.734741 413.139313,208.216125 
	C410.628052,211.363617 407.478912,209.502106 404.397034,209.722672 
z"/>
<path fill="#F1F1F1" opacity="1.000000" stroke="none" 
	d="
M766.389404,473.006775 
	C766.010071,472.881378 766.004211,472.514221 766.007690,472.330658 
	C768.700317,472.308533 771.761536,470.700226 774.076477,473.860138 
	C771.380310,474.629974 769.114868,473.449219 766.389404,473.006775 
z"/>
<path fill="#DBDBDB" opacity="1.000000" stroke="none" 
	d="
M464.354736,99.998337 
	C464.030609,99.843582 464.007141,99.351151 464.035126,99.106247 
	C466.267151,99.155869 468.902496,98.116646 470.660339,101.036636 
	C471.012787,101.192505 471.037262,101.515991 471.042358,101.678116 
	C468.924561,101.277863 466.801727,100.715477 464.354736,99.998337 
z"/>
<path fill="#DBDBDB" opacity="1.000000" stroke="none" 
	d="
M777.072144,511.363770 
	C777.000488,510.997314 776.908081,510.673859 776.937866,510.508301 
	C779.307800,511.285736 781.647888,512.228699 784.299744,513.297241 
	C780.864014,515.527466 779.405273,512.195129 777.072144,511.363770 
z"/>
<path fill="#EFEFEF" opacity="1.000000" stroke="none" 
	d="
M810.382935,527.560913 
	C812.367310,528.662964 814.200928,529.933105 816.787354,531.724854 
	C813.045105,532.423706 811.562927,530.502136 809.952759,528.441040 
	C809.932007,528.066650 810.232117,527.729004 810.382935,527.560913 
z"/>
<path fill="#E2E2E2" opacity="1.000000" stroke="none" 
	d="
M522.770386,368.387878 
	C524.994202,370.776367 523.762817,373.192047 523.520752,375.548248 
	C523.209412,373.073334 521.516724,370.837219 522.770386,368.387878 
z"/>
<path fill="#E9E9E9" opacity="1.000000" stroke="none" 
	d="
M275.859741,244.476303 
	C278.553436,243.404053 281.086517,242.539551 283.619598,241.675049 
	C282.024872,244.554611 279.523285,245.014496 276.432251,245.057877 
	C275.916809,244.958267 275.807983,244.821152 275.859741,244.476303 
z"/>
<path fill="#DBDBDB" opacity="1.000000" stroke="none" 
	d="
M522.617676,332.745026 
	C522.881775,331.440887 523.058044,330.493134 523.322327,329.072021 
	C524.357605,334.112000 524.357605,334.112000 522.457642,336.853210 
	C521.570190,335.570068 522.288452,334.339050 522.617676,332.745026 
z"/>
<path fill="#E6E6E6" opacity="1.000000" stroke="none" 
	d="
M908.316772,558.172424 
	C905.865906,557.187805 903.869263,556.248474 904.013489,553.063171 
	C906.059204,553.917969 906.997437,555.574341 908.446960,557.119446 
	C908.670288,557.682556 908.703125,557.964417 908.316772,558.172424 
z"/>
<path fill="#EAEAEA" opacity="1.000000" stroke="none" 
	d="
M557.803711,244.143082 
	C556.635559,245.608871 554.880554,246.894928 552.819580,248.302124 
	C552.303284,248.481918 552.092957,248.540573 551.915894,248.273438 
	C552.291809,244.751083 555.509277,245.355362 557.803711,244.143082 
z"/>
<path fill="#DBDBDB" opacity="1.000000" stroke="none" 
	d="
M558.042908,244.069534 
	C559.129639,242.264999 560.424561,240.637665 560.038635,238.084213 
	C562.960510,240.999573 561.932129,242.774094 558.725464,244.231735 
	C558.390564,244.322815 558.124878,244.192703 558.042908,244.069534 
z"/>
<path fill="#DBDBDB" opacity="1.000000" stroke="none" 
	d="
M611.027466,458.000427 
	C613.287231,458.358063 615.990784,456.763306 618.031616,459.676117 
	C615.383179,460.495697 613.238831,459.011597 611.036377,458.326630 
	C611.103882,457.938873 611.061890,457.994659 611.027466,458.000427 
z"/>
<path fill="#DBDBDB" opacity="1.000000" stroke="none" 
	d="
M250.660614,253.200058 
	C251.019730,253.178543 251.067047,253.663956 251.054810,253.907501 
	C250.009933,256.824524 247.725937,255.957520 245.374603,255.988495 
	C244.980499,255.961990 245.053787,255.965561 245.078094,255.992340 
	C246.131317,253.778000 248.708344,254.414017 250.660614,253.200058 
z"/>
<path fill="#E2E2E2" opacity="1.000000" stroke="none" 
	d="
M334.345734,208.685486 
	C333.051819,209.002213 332.080658,209.481140 331.170013,208.597931 
	C332.628326,205.642929 335.196014,207.551910 337.385437,207.510040 
	C336.486328,207.858627 335.587250,208.207199 334.345734,208.685486 
z"/>
<path fill="#E6E6E6" opacity="1.000000" stroke="none" 
	d="
M565.947388,272.067078 
	C567.372803,271.320038 568.470459,270.733887 570.548462,269.624176 
	C568.960815,272.455872 567.476746,273.674164 565.299194,273.995300 
	C564.771423,274.073120 563.870789,274.050323 564.437622,273.064423 
	C564.656006,272.684662 565.215454,272.501007 565.947388,272.067078 
z"/>
<path fill="#E9E9E9" opacity="1.000000" stroke="none" 
	d="
M787.547241,329.883606 
	C788.875305,331.586365 790.018311,333.103149 791.457825,335.013397 
	C788.394409,334.723724 787.024475,333.433289 786.960815,330.400879 
	C787.084412,329.910339 787.223328,329.804016 787.547241,329.883606 
z"/>
<path fill="#DBDBDB" opacity="1.000000" stroke="none" 
	d="
M232.645401,260.063110 
	C233.019424,260.055145 233.008347,260.459839 233.009277,260.662262 
	C231.743927,263.470581 229.653793,263.395142 226.484619,262.570374 
	C228.883514,261.534302 230.577454,260.802704 232.645401,260.063110 
z"/>
<path fill="#EFEFEF" opacity="1.000000" stroke="none" 
	d="
M896.426331,545.562317 
	C898.014832,546.664001 899.432983,547.934631 900.970947,549.498413 
	C901.180542,549.978821 901.270386,550.166077 901.176514,550.604858 
	C899.318359,549.500000 897.643982,548.143555 895.946045,546.431396 
	C895.922485,546.075745 896.256042,545.731201 896.426331,545.562317 
z"/>
<path fill="#E9E9E9" opacity="1.000000" stroke="none" 
	d="
M564.224915,208.618286 
	C565.816284,209.901215 568.206238,210.491745 568.072998,213.579224 
	C565.440063,213.524918 565.121399,210.988983 564.104492,208.903854 
	C564.318054,208.527756 564.245178,208.578705 564.224915,208.618286 
z"/>
<path fill="#DBDBDB" opacity="1.000000" stroke="none" 
	d="
M787.638611,329.738464 
	C787.732300,330.069580 787.335876,330.088623 787.140747,330.052643 
	C782.735718,329.578827 786.039062,326.594910 785.536926,324.850311 
	C786.206299,326.369324 786.875610,327.888336 787.638611,329.738464 
z"/>
<path fill="#E6E6E6" opacity="1.000000" stroke="none" 
	d="
M688.328125,244.915222 
	C688.005066,244.769745 688.030151,244.326981 688.035645,244.105301 
	C689.962402,244.293289 692.242493,243.121078 693.906494,245.549973 
	C694.024902,245.912766 694.048462,246.332474 694.031250,246.541962 
	C692.226440,246.187866 690.438843,245.624283 688.328125,244.915222 
z"/>
<path fill="#DBDBDB" opacity="1.000000" stroke="none" 
	d="
M275.666840,244.299072 
	C276.020355,244.268570 276.068207,244.681686 276.046936,244.888519 
	C274.683044,246.844345 272.844543,247.244797 270.389771,247.013290 
	C270.001556,247.001358 269.834595,246.836029 269.819427,246.707611 
	C271.640625,245.829330 273.476959,245.079453 275.666840,244.299072 
z"/>
<path fill="#E6E6E6" opacity="1.000000" stroke="none" 
	d="
M840.694580,530.847656 
	C843.308899,530.924438 844.304443,532.407959 845.080811,534.542908 
	C845.141113,535.170044 845.171021,535.446350 844.784912,535.696533 
	C843.177979,534.478516 841.987122,533.286621 840.608276,531.840454 
	C840.378296,531.319519 840.336304,531.052856 840.694580,530.847656 
z"/>
<path fill="#E9E9E9" opacity="1.000000" stroke="none" 
	d="
M518.532104,277.968292 
	C518.016235,278.072327 517.779419,278.041901 517.186646,277.971344 
	C517.004517,275.804993 519.179932,275.375275 520.567871,273.950439 
	C520.940674,273.938751 521.234863,274.190186 521.383240,274.314392 
	C520.624817,275.570374 519.718018,276.702118 518.532104,277.968292 
z"/>
<path fill="#F1F1F1" opacity="1.000000" stroke="none" 
	d="
M208.809448,258.895630 
	C209.233505,256.418915 210.482101,255.648880 216.028610,254.356979 
	C214.431091,257.297485 211.365417,257.384369 208.809448,258.895630 
z"/>
<path fill="#E9E9E9" opacity="1.000000" stroke="none" 
	d="
M307.412292,234.886246 
	C307.014709,234.768646 307.036011,234.491653 307.025940,234.353119 
	C308.932343,233.732315 310.689240,232.062012 312.868042,233.365082 
	C311.746674,235.794754 309.617279,234.883148 307.412292,234.886246 
z"/>
<path fill="#E6E6E6" opacity="1.000000" stroke="none" 
	d="
M350.314423,222.881790 
	C348.416382,224.852798 346.535248,223.853058 344.623260,223.315201 
	C346.166138,222.881851 347.709045,222.448486 349.626831,222.037918 
	C350.188416,222.236298 350.375061,222.411896 350.314423,222.881790 
z"/>
<path fill="#EAEAEA" opacity="1.000000" stroke="none" 
	d="
M552.372070,248.304810 
	C551.227661,249.392944 549.941772,250.362671 548.404907,251.521667 
	C547.343079,248.249695 550.257385,248.983109 551.565857,247.956757 
	C551.949036,247.947632 552.230530,248.186401 552.372070,248.304810 
z"/>
<path fill="#F1F1F1" opacity="1.000000" stroke="none" 
	d="
M552.810852,281.396912 
	C553.999329,280.398132 554.940369,279.597534 556.162354,278.662781 
	C556.660889,278.478119 556.878540,278.427612 557.070312,278.711182 
	C556.253967,280.404297 555.421021,281.715698 553.354614,282.033508 
	C552.863159,281.893066 552.713257,281.744080 552.810852,281.396912 
z"/>
<path fill="#E6E6E6" opacity="1.000000" stroke="none" 
	d="
M844.921997,535.084412 
	C846.085754,535.567749 847.704346,536.199036 846.647888,537.587402 
	C846.161316,538.226868 845.412964,536.696838 844.564941,535.925354 
	C844.490112,535.538635 844.611450,535.406921 844.921997,535.084412 
z"/>
<path fill="#E6E6E6" opacity="1.000000" stroke="none" 
	d="
M835.823242,526.659668 
	C834.665283,526.151367 832.854492,525.251892 833.312378,524.461182 
	C834.127502,523.053467 835.028503,524.717468 835.981750,525.563599 
	C836.091248,526.080200 836.066467,526.273193 835.823242,526.659668 
z"/>
<path fill="#E6E6E6" opacity="1.000000" stroke="none" 
	d="
M810.746582,506.918976 
	C812.346558,506.676270 813.114990,507.488068 813.970581,508.617065 
	C814.055176,508.939392 813.832214,509.217163 813.722900,509.357788 
	C812.737488,508.991852 811.861450,508.485291 810.780518,507.751923 
	C810.527100,507.319702 810.478638,507.114258 810.746582,506.918976 
z"/>
<path fill="#E9E9E9" opacity="1.000000" stroke="none" 
	d="
M827.216431,542.092896 
	C826.029175,541.984802 824.832520,542.286499 824.995667,540.748413 
	C825.037415,540.354919 825.305298,539.985413 825.469360,539.604919 
	C826.092651,540.065979 826.716003,540.527100 827.530090,541.250000 
	C827.654785,541.704895 827.588623,541.898010 827.216431,542.092896 
z"/>
<path fill="#E6E6E6" opacity="1.000000" stroke="none" 
	d="
M552.781494,281.294678 
	C553.058289,281.198730 553.059753,281.621704 553.036377,281.831909 
	C553.018494,282.957092 553.328064,284.055389 551.446899,284.071075 
	C551.090088,284.093811 550.747070,283.763153 550.581055,283.592224 
	C551.111572,282.744415 551.808167,282.067535 552.781494,281.294678 
z"/>
<path fill="#E9E9E9" opacity="1.000000" stroke="none" 
	d="
M571.607971,218.420547 
	C570.896729,218.072693 570.344971,217.559128 569.640869,216.804901 
	C569.439758,216.323486 569.391052,216.082733 569.708252,215.885086 
	C570.957703,216.006790 572.096436,215.693878 572.062378,217.565460 
	C572.082581,217.919876 571.767395,218.254822 571.607971,218.420547 
z"/>
<path fill="#E6E6E6" opacity="1.000000" stroke="none" 
	d="
M838.811035,528.940186 
	C839.965088,529.003662 841.108215,528.697205 841.072021,530.556152 
	C841.094849,530.908997 840.760437,531.250488 840.590393,531.418335 
	C839.837585,531.058105 839.254822,530.529968 838.508545,529.755127 
	C838.407104,529.330933 838.469116,529.153320 838.811035,528.940186 
z"/>
<path fill="#EFEFEF" opacity="1.000000" stroke="none" 
	d="
M837.101929,361.921448 
	C836.047424,361.992889 834.927307,362.278168 834.681274,360.517090 
	C835.621643,359.274933 836.223145,360.522797 837.300049,361.246704 
	C837.558167,361.529938 837.254578,361.791656 837.101929,361.921448 
z"/>
<path fill="#E9E9E9" opacity="1.000000" stroke="none" 
	d="
M831.208374,545.328552 
	C832.179749,545.909729 832.740784,546.435364 833.454468,547.207275 
	C833.607178,547.453613 833.263550,547.770386 833.090210,547.927002 
	C832.044800,547.988647 830.903137,548.304688 830.932495,546.445984 
	C830.871277,545.820251 830.834656,545.546570 831.208374,545.328552 
z"/>
<path fill="#E6E6E6" opacity="1.000000" stroke="none" 
	d="
M542.621155,291.684937 
	C542.952454,290.955170 543.434631,290.352112 544.143555,289.567627 
	C544.495972,289.501801 544.621704,289.617340 544.925049,289.917389 
	C545.000488,290.981934 545.278931,292.121521 543.422607,292.059143 
	C543.068481,292.070984 542.771973,291.811615 542.621155,291.684937 
z"/>
<path fill="#F1F1F1" opacity="1.000000" stroke="none" 
	d="
M556.593384,278.658020 
	C557.188599,278.004822 557.766235,276.458405 558.852234,277.632172 
	C559.475159,278.305389 558.747131,279.020325 557.401855,279.034851 
	C557.044556,279.045319 556.743469,278.787445 556.593384,278.658020 
z"/>
<path fill="#E6E6E6" opacity="1.000000" stroke="none" 
	d="
M908.447632,557.570007 
	C909.183044,557.950684 909.728516,558.500549 910.423096,559.300293 
	C910.572205,559.550049 910.259155,559.798950 910.104004,559.925049 
	C909.067688,559.982300 907.924866,560.333801 907.924316,558.453064 
	C908.017700,557.978760 908.137695,557.859009 908.447632,557.570007 
z"/>
<path fill="#E9E9E9" opacity="1.000000" stroke="none" 
	d="
M831.087769,545.918640 
	C830.039795,545.987671 828.893799,546.298584 828.932129,544.442505 
	C828.926880,543.894531 828.946533,543.698364 829.244812,543.402954 
	C830.106262,543.836243 830.689026,544.368713 831.445190,545.142700 
	C831.501709,545.503906 831.384644,545.623657 831.087769,545.918640 
z"/>
<path fill="#E9E9E9" opacity="1.000000" stroke="none" 
	d="
M568.012939,213.995636 
	C568.912476,213.990295 570.020752,213.648926 570.057251,215.565201 
	C570.074158,215.928177 569.782471,216.247208 569.635498,216.405731 
	C568.897949,215.877914 568.307373,215.191589 567.912476,214.217819 
	C568.108093,213.930359 568.042786,213.971191 568.012939,213.995636 
z"/>
<path fill="#F1F1F1" opacity="1.000000" stroke="none" 
	d="
M218.500641,252.922333 
	C218.955841,252.875732 218.970245,253.366119 218.982880,253.611115 
	C217.955292,254.249481 216.754257,256.120087 215.912643,254.112762 
	C215.485977,253.095123 217.115738,253.030884 218.500641,252.922333 
z"/>
<path fill="#EAEAEA" opacity="1.000000" stroke="none" 
	d="
M342.368958,76.886810 
	C341.995453,76.827454 342.007599,76.348274 342.029419,76.109550 
	C342.790100,75.933327 343.528992,75.995834 344.635376,76.122414 
	C345.002838,76.186493 345.001740,76.508453 345.002136,76.669388 
	C344.249176,76.868935 343.495789,76.907547 342.368958,76.886810 
z"/>
<path fill="#E6E6E6" opacity="1.000000" stroke="none" 
	d="
M561.662781,275.012115 
	C561.571228,274.861816 561.478638,274.838348 561.386047,274.814880 
	C561.477966,274.922913 561.569824,275.030914 561.662781,275.012115 
z"/>
<path fill="#E9E9E9" opacity="1.000000" stroke="none" 
	d="
M350.415955,223.112488 
	C350.051910,222.990433 350.036713,222.804794 350.011658,222.339920 
	C350.716583,221.830551 351.403412,221.716675 351.871704,222.510803 
	C351.502747,222.690170 351.133759,222.869522 350.415955,223.112488 
z"/>
<path fill="#E2E2E2" opacity="1.000000" stroke="none" 
	d="
M850.388062,568.172363 
	C850.498047,568.176025 850.564331,568.075989 850.630554,567.975952 
	C850.535156,568.006897 850.439697,568.037842 850.388062,568.172363 
z"/>
<path fill="#E2E2E2" opacity="1.000000" stroke="none" 
	d="
M482.012085,177.337189 
	C481.965698,177.821045 482.050446,177.796814 482.012085,177.337189 
z"/>
<path fill="#E9E9E9" opacity="1.000000" stroke="none" 
	d="
M835.663086,508.011353 
	C835.572449,507.861572 835.480591,507.837982 835.388672,507.814392 
	C835.479675,507.922150 835.570740,508.029877 835.663086,508.011353 
z"/>
<path fill="#E6E6E6" opacity="1.000000" stroke="none" 
	d="
M810.696594,507.375366 
	C810.068970,507.145660 809.562256,506.766205 809.055603,506.386719 
	C809.638184,505.940674 810.242310,505.904846 810.965820,506.610413 
	C811.063049,506.929108 810.817566,507.225647 810.696594,507.375366 
z"/>
<path fill="#F1F1F1" opacity="1.000000" stroke="none" 
	d="
M201.606842,261.598480 
	C202.064789,261.047455 202.001038,259.949158 203.129440,260.118317 
	C203.368042,260.154114 203.696243,260.449829 203.754745,260.683075 
	C204.029739,261.779510 203.203705,261.956299 201.986267,261.836334 
	C201.545410,261.527405 201.584549,261.576416 201.606842,261.598480 
z"/>
<path fill="#E6E6E6" opacity="1.000000" stroke="none" 
	d="
M834.541260,360.184052 
	C834.078613,359.989655 833.574951,359.818909 832.994812,359.369507 
	C832.918396,359.090881 833.226746,358.754181 833.383667,358.588348 
	C834.035156,358.884888 834.529785,359.347260 834.722168,360.033752 
	C834.419861,360.257874 834.500183,360.207672 834.541260,360.184052 
z"/>
<path fill="#F1F1F1" opacity="1.000000" stroke="none" 
	d="
M720.493469,254.495102 
	C720.512329,254.496536 720.474609,254.493668 720.493469,254.495102 
z"/>
<path fill="#E9E9E9" opacity="1.000000" stroke="none" 
	d="
M883.779602,627.654175 
	C883.847900,628.044250 883.527344,628.034851 883.367493,628.022156 
	C883.207642,628.009460 883.044495,627.594238 882.819580,627.569641 
	C882.594604,627.545044 882.625916,627.568054 882.606201,627.598206 
	C882.786255,626.965881 883.157471,626.833069 883.779602,627.654175 
z"/>
<path fill="#DBDBDB" opacity="1.000000" stroke="none" 
	d="
M330.761414,227.087219 
	C331.035767,227.115234 331.015167,227.482162 331.011963,227.665894 
	C331.008728,227.849625 330.524109,227.961136 330.277893,227.995728 
	C330.031647,228.030304 329.778320,227.789856 329.653534,227.664246 
	C329.848175,227.378830 330.167603,227.219025 330.761414,227.087219 
z"/>
<path fill="#E2E2E2" opacity="1.000000" stroke="none" 
	d="
M754.521729,270.347443 
	C754.114441,270.122040 753.906433,269.753571 753.698425,269.385071 
	C754.090149,269.352295 754.481934,269.319550 754.986816,269.589844 
	C755.100037,269.892914 754.720947,270.204376 754.521729,270.347443 
z"/>
<path fill="#E9E9E9" opacity="1.000000" stroke="none" 
	d="
M544.504883,254.493408 
	C544.503540,254.512253 544.506287,254.474548 544.504883,254.493408 
z"/>
<path fill="#E6E6E6" opacity="1.000000" stroke="none" 
	d="
M903.504761,551.493286 
	C903.503174,551.512268 903.506409,551.474365 903.504761,551.493286 
z"/>
<path fill="#E6E6E6" opacity="1.000000" stroke="none" 
	d="
M901.294189,550.886475 
	C901.001892,550.678345 901.011047,550.500244 901.055420,550.056885 
	C901.498779,550.058960 902.391174,550.108948 901.294189,550.886475 
z"/>
<path fill="#E9E9E9" opacity="1.000000" stroke="none" 
	d="
M828.233887,542.383789 
	C828.732422,542.444702 828.990723,542.657898 829.386230,543.087402 
	C829.424561,543.437927 829.325684,543.572083 829.067017,543.898499 
	C828.616455,543.926819 828.325684,543.762878 827.967529,543.348145 
	C827.931335,542.910278 827.962463,542.723206 828.233887,542.383789 
z"/>
<path fill="#E9E9E9" opacity="1.000000" stroke="none" 
	d="
M827.511475,541.648071 
	C827.953064,541.591980 828.144775,541.728699 828.385132,542.076843 
	C828.386658,542.381165 828.299072,542.530823 828.055786,542.888916 
	C827.611694,542.930664 827.323181,542.763977 826.972534,542.346069 
	C826.910339,542.094727 827.302002,541.784363 827.511475,541.648071 
z"/>
<path fill="#E9E9E9" opacity="1.000000" stroke="none" 
	d="
M360.260559,200.894638 
	C359.963165,200.868347 359.992035,200.521912 359.994904,200.348175 
	C360.507904,200.180588 361.280945,199.989456 360.260559,200.894638 
z"/>
<path fill="#E2E2E2" opacity="1.000000" stroke="none" 
	d="
M763.940857,278.074036 
	C764.592285,278.020081 764.988831,278.259247 764.755798,278.826233 
	C764.698303,278.966248 764.239441,278.941376 763.735168,278.787781 
	C763.505249,278.583282 763.788574,278.237579 763.940857,278.074036 
z"/>
<path fill="#E6E6E6" opacity="1.000000" stroke="none" 
	d="
M837.781006,527.906494 
	C838.383423,528.068726 838.675842,528.232849 839.029602,528.650757 
	C839.090942,528.904541 838.726257,529.216736 838.535645,529.362610 
	C838.062195,529.353577 837.811218,529.157837 837.465820,528.717651 
	C837.383240,528.312317 837.427063,528.110352 837.781006,527.906494 
z"/>
<path fill="#E6E6E6" opacity="1.000000" stroke="none" 
	d="
M837.531250,528.366699 
	C837.063538,528.318359 836.787598,528.122437 836.390320,527.702881 
	C836.328186,527.269592 836.387512,527.059998 836.772583,526.873352 
	C837.388733,527.063599 837.678955,527.231018 838.030151,527.651489 
	C838.091003,527.904602 837.723145,528.219177 837.531250,528.366699 
z"/>
<path fill="#E6E6E6" opacity="1.000000" stroke="none" 
	d="
M835.971191,526.119690 
	C836.400940,526.057556 836.685730,526.227966 837.034546,526.647278 
	C836.964661,526.999878 836.830933,527.103455 836.483093,527.343018 
	C836.057068,527.422546 835.884888,527.306946 835.678589,526.992798 
	C835.678650,526.686218 835.752502,526.519226 835.971191,526.119690 
z"/>
<path fill="#F1F1F1" opacity="1.000000" stroke="none" 
	d="
M206.761932,258.292175 
	C206.736176,258.789825 206.456055,259.141754 206.166534,258.604889 
	C206.116791,258.512665 206.397659,258.242126 206.761932,258.292175 
z"/>
<path fill="#F1F1F1" opacity="1.000000" stroke="none" 
	d="
M204.282990,259.761383 
	C204.332703,259.493744 204.618607,259.464081 204.904510,259.434448 
	C204.776062,259.622742 204.647629,259.811066 204.282990,259.761383 
z"/>
<path fill="#E2E2E2" opacity="1.000000" stroke="none" 
	d="
M289.506592,140.504852 
	C289.487701,140.503464 289.525452,140.506241 289.506592,140.504852 
z"/>
<path fill="#E6E6E6" opacity="1.000000" stroke="none" 
	d="
M784.505005,492.493469 
	C784.503662,492.512299 784.506287,492.474609 784.505005,492.493469 
z"/>
<path fill="#DBDBDB" opacity="1.000000" stroke="none" 
	d="
M608.194092,231.705536 
	C607.978882,231.620865 607.954712,231.313812 607.975708,231.161255 
	C608.249512,231.167068 608.502319,231.325439 608.755127,231.483826 
	C608.639893,231.585953 608.524597,231.688080 608.194092,231.705536 
z"/>
<path fill="#E6E6E6" opacity="1.000000" stroke="none" 
	d="
M824.206299,352.901093 
	C823.993469,352.820435 823.981567,352.437805 823.981567,352.246399 
	C824.299133,352.318542 824.616760,352.582092 824.728394,353.144043 
	C824.522461,353.442444 824.559814,353.408203 824.566284,353.409241 
	C824.572693,353.410309 824.419128,352.981750 824.206299,352.901093 
z"/>
<path fill="#3F3F3F" opacity="1.000000" stroke="none" 
	d="
M71.310760,187.028778 
	C68.210648,188.334290 65.385078,189.510605 60.880508,188.798752 
	C64.842178,187.579529 67.530609,186.752167 70.609901,185.963287 
	C71.183960,186.224213 71.367157,186.446625 71.310760,187.028778 
z"/>
<path fill="#000000" opacity="1.000000" stroke="none" 
	d="
M71.507210,187.296753 
	C71.046585,187.158051 71.021988,186.927582 70.999084,186.349457 
	C71.673111,185.948654 72.389954,184.919449 72.979126,185.825027 
	C73.663330,186.876678 72.600586,186.966843 71.507210,187.296753 
z"/>
<path fill="#000000" opacity="1.000000" stroke="none" 
	d="
M142.452423,299.952087 
	C141.513428,299.825684 140.343826,300.102386 140.624161,299.493347 
	C141.055054,298.557281 142.209930,297.534637 143.344360,298.110077 
	C144.316422,298.603180 143.736847,299.459686 142.452423,299.952087 
z"/>
</svg>